<svg width="318" height="236" xmlns="http://www.w3.org/2000/svg" xmlns:xlink="http://www.w3.org/1999/xlink" xml:space="preserve" overflow="hidden"><defs><clipPath id="clip0"><rect x="0" y="0" width="318" height="236"/></clipPath><clipPath id="clip1"><rect x="0" y="0" width="318" height="236"/></clipPath></defs><g clip-path="url(#clip0)"><g clip-path="url(#clip1)"><path d="M295.861 60.8815C259.801 10.7019 183.625-9.65311 108.709 12.2697 69.1024 23.8597 30.9148 47.0819 11.99 92.0475-21.8403 172.429 49.1906 198.1 95.637 206.282 118.096 210.238 139.249 216.884 158.578 225.932 193.353 242.211 254.908 256.635 301.324 188.828 334.967 139.681 319.881 94.3061 295.861 60.8815Z" fill="#F2F2F2" fill-rule="nonzero" fill-opacity="1" transform="matrix(1.00058 0 0 1 -3.11104 -3.51328)"/><path d="M86.7953 70.8094C86.6944 70.0119 86.4904 69.2308 86.1884 68.4859 86.1105 68.201 85.9165 67.9621 85.6537 67.8273 85.48 67.7822 85.2978 67.7801 85.1231 67.8214L82.3993 68.2382C82.1713 68.2486 81.953 68.3334 81.7778 68.4797 81.423 68.8528 81.7724 69.4535 81.7615 69.9683 81.7493 70.5471 81.235 71.0169 80.6774 71.1723 80.1081 71.2873 79.5209 71.2801 78.9547 71.151L75.1459 70.5591C76.2676 70.201 77.2661 69.5347 78.0273 68.6363 78.5285 68.0425 78.7951 66.934 78.0707 66.6528 77.8555 66.5937 77.6311 66.5757 77.4092 66.5997 75.6836 66.6131 74.3256 65.1723 72.7102 64.5655 70.5892 63.8203 68.2295 64.5237 66.8628 66.3086L68.8917 66.4064C69.0826 66.3959 69.2719 66.4464 69.4322 66.5506 69.8768 66.9159 69.324 67.6176 69.3867 68.1897 69.468 68.933 70.4549 69.0917 71.1988 69.1668 71.9427 69.242 72.8865 69.8464 72.5286 70.5029 68.7896 71.7908 64.9848 67.9854 61.0581 68.4538 60.0642 68.5724 59.1258 68.9628 58.1555 69.2083 52.2281 70.708 46.1003 66.7066 40.0452 67.5541 38.6991 67.7835 37.3761 68.1325 36.0918 68.5967 35.2677 68.8673 34.4081 69.1597 33.8093 69.7873 33.2105 70.4148 32.9826 71.488 33.5499 72.1442 31.9864 72.273 30.4124 72.1234 28.9011 71.7023 29.7336 72.165 30.2471 73.0453 30.2401 73.9977 27.7989 74.3957 25.4223 75.1204 23.1742 76.1522 23.5938 76.8499 24.0838 77.5027 24.6367 78.1004L21.5461 80.0859C22.5902 80.349 23.1301 81.7727 22.5229 82.662 23.6055 82.1803 24.2765 80.9343 25.4343 80.6817 26.1927 80.5162 26.9645 80.8265 27.684 81.118 28.4035 81.4095 29.1943 81.6921 29.9392 81.4733 30.684 81.2546 31.2334 80.2888 30.7601 79.6734 33.9438 78.7445 37.2341 78.2305 40.5494 78.144 40.8052 78.1119 41.0646 78.1611 41.2908 78.2847 41.7224 78.5841 41.6089 79.2308 41.5856 79.7556 41.5624 80.2803 41.9713 80.97 42.4403 80.7335 41.8886 81.2119 42.3603 82.1127 42.8896 82.6158 43.419 83.119 44.0571 83.8132 43.733 84.4677 43.6484 84.6385 43.5049 84.7752 43.4235 84.9476 43.1833 85.4563 43.5647 86.0495 44.0146 86.3874 44.4645 86.7252 45.0156 86.9614 45.3281 87.4292 45.6406 87.8971 45.4987 88.716 44.9399 88.7814L43.3515 86.7646C42.8088 87.3274 42.4367 88.0324 42.2785 88.798 43.9628 90.1749 44.2162 92.9776 42.8061 94.6343 42.0854 95.4809 41.0606 95.9953 40.1662 96.6556 39.2718 97.316 38.4442 98.2563 38.4465 99.3681 38.4504 101.289 38.2934 103.073 39.0132 104.854 40.3404 108.138 41.8727 111.335 43.6011 114.426 44.055 115.238 44.6416 116.127 45.561 116.267 44.399 113.438 43.353 110.565 42.4229 107.649 43.0287 107.651 43.7287 107.699 44.0838 108.19 44.3779 108.596 44.3147 109.149 44.4061 109.642 44.5223 110.12 44.7161 110.575 44.9798 110.991L50.5287 120.875C50.9887 121.694 51.5164 122.574 52.3955 122.906 52.9576 123.118 53.6079 123.078 54.1253 123.383 54.5308 123.623 54.8039 124.048 55.2173 124.273 56.3863 124.911 58.0118 123.688 59.1041 124.449 59.4165 124.667 59.6152 125.013 59.903 125.262 60.9119 126.136 62.567 125.551 63.7316 126.203 64.4822 126.623 64.8713 127.463 65.2716 128.225 66.2745 130.132 67.8972 132 70.0464 132.152 70.7216 132.199 71.4112 132.071 72.0711 132.221 72.731 132.372 73.3806 132.948 73.2747 133.616 73.0931 134.762 73.6593 136.017 73.5073 137.167 73.2303 139.262 70.2582 140.183 70.0029 142.281 69.947 142.741 70.0345 143.215 69.9251 143.664 69.7911 144.216 69.3772 144.664 69.2302 145.212 68.9515 146.25 69.6952 147.283 70.5122 147.982 71.3292 148.68 72.3037 149.282 72.7504 150.26 73.2225 151.293 72.9906 152.498 73.1441 153.623 73.4793 156.081 75.6018 157.903 77.7862 159.077 78.4517 159.435 79.1663 159.782 79.597 160.402 80.1593 161.213 80.1032 162.281 80.291 163.249 80.7508 165.62 82.747 167.574 82.8037 169.989 82.8439 171.705 81.8899 173.262 81.32 174.882 80.2387 178.022 80.5789 181.477 82.2517 184.345 82.6781 185.065 83.188 185.744 83.4896 186.524 84.0278 187.917 83.8531 189.5 84.3494 190.908 85.0054 192.77 86.8082 194.308 86.6356 196.274 87.4541 197.974 89.2613 198.809 91.0786 199.315L94.3356 200.221C94.9592 200.395 95.6109 200.57 96.2459 200.444 96.8809 200.319 97.4869 199.791 97.4706 199.144 95.8734 198.784 94.225 198.401 92.9084 197.428 91.5918 196.454 90.6898 194.721 91.1894 193.162 91.421 192.439 91.9138 191.604 91.4453 191.007 91.1771 190.665 90.6865 190.575 90.384 190.263 89.912 189.776 90.0742 188.959 90.4134 188.372 90.7527 187.785 91.2431 187.26 91.38 186.596 91.5215 185.835 91.1752 185.067 90.5116 184.669 91.1155 184.441 91.6647 184.088 92.1237 183.634 92.5476 183.15 92.7435 182.404 92.41 181.853 93.4003 181.979 94.5695 182.041 95.2196 181.283 95.7387 180.678 95.7031 179.774 95.498 179.003 95.2928 178.233 94.9461 177.485 94.9353 176.688 97.2199 176.796 99.5094 176.718 101.781 176.456 101.453 175.349 100.706 174.414 99.7 173.849 100.729 173.675 101.666 172.443 101.991 171.451 102.317 170.459 102.234 169.379 102.033 168.355 101.955 168.092 101.945 167.813 102.002 167.544 102.118 167.175 102.481 166.949 102.816 166.757L107.924 163.824C108.228 163.671 108.505 163.467 108.74 163.221 109.275 162.592 109.196 161.643 108.922 160.865 108.648 160.086 108.209 159.354 108.104 158.535 107.788 156.086 110.409 154.33 111.294 152.025 111.641 151.12 111.712 150.137 111.779 149.171 111.851 148.132 111.856 146.927 111.059 146.258 110.295 145.616 109.101 145.76 108.302 145.163 107.569 144.616 107.316 143.554 106.515 143.112 105.788 142.711 104.876 142.966 104.068 142.778 102.643 142.446 101.747 140.804 100.293 140.652 99.4724 140.567 98.5437 140.968 97.8712 140.49 97.2785 140.069 97.2548 139.222 97.142 138.504 96.7371 136.218 94.951 134.426 92.6663 134.014 91.8203 133.879 90.8994 133.93 90.1796 133.465 89.4508 132.994 89.1166 132.113 88.5442 131.461 87.6215 130.41 86.1683 130.037 84.807 129.717L79.2699 128.415C78.287 128.184 77.02 128.061 76.4925 128.922 76.3364 129.25 76.2259 129.598 76.164 129.956 75.7585 131.284 74.543 132.199 73.1547 132.221 72.6906 131.429 71.9388 130.848 71.0561 130.597 70.4947 130.441 69.8937 130.423 69.3582 130.193 68.1744 129.615 67.6832 128.187 68.261 127.003 68.2806 126.963 68.3014 126.923 68.3233 126.884 68.9796 125.716 68.7717 124.253 67.816 123.313 66.8743 122.468 65.5122 122.264 64.2496 122.348 63.9189 121.627 64.4718 120.813 65.0676 120.288 65.6635 119.764 66.387 119.248 66.5168 118.465 66.7209 117.233 65.1493 116.298 63.956 116.665 62.7627 117.032 62.0011 118.192 61.4976 119.334 61.2087 119.99 60.9632 120.68 60.5075 121.233 60.0518 121.785 59.3181 122.181 58.624 122.004 57.6414 121.753 57.262 120.585 57.0445 119.595 56.7527 118.266 56.4593 116.918 56.5204 115.559 56.5815 114.2 57.0398 112.804 58.0421 111.884 59.6755 110.384 62.1811 110.531 64.3855 110.77 63.8647 110.184 63.9934 109.195 64.5506 108.642 65.1478 108.112 65.9684 107.91 66.7435 108.104 67.4077 108.242 68.0061 108.6 68.4423 109.119 69.0687 109.883 69.2468 110.914 69.7203 111.781 70.1938 112.648 71.2584 113.387 72.1299 112.922 72.8825 112.521 73.002 111.477 72.8147 110.645 72.6273 109.812 72.2295 109.003 72.2973 108.152 72.4268 106.53 74.109 105.553 75.5934 104.885 77.0778 104.216 78.7776 103.317 79.0128 101.707 79.0208 101.391 79.0803 101.079 79.1889 100.783 79.3535 100.521 79.5823 100.306 79.8536 100.158 84.1859 97.2949 88.5903 94.3969 93.5419 92.8324 93.7996 92.751 93.8298 92.8415 94.0923 92.7777 94.4598 92.5654 94.2163 91.9779 93.864 91.7412 93.5117 91.5046 93.0409 91.3231 92.9515 90.9082 92.8858 90.6032 93.0655 90.3038 93.1122 89.9953 93.2269 89.2373 92.3201 88.5375 91.6159 88.8406 91.2182 88.3138 92.0052 87.7017 92.6416 87.5265 94.5526 87.0006 96.5142 86.6801 98.4932 86.5706 98.7216 86.5343 98.9556 86.5741 99.1591 86.6839 99.4915 86.9141 99.449 87.4422 99.2135 87.7708 98.9779 88.0995 98.6115 88.3058 98.3179 88.5839 97.6641 89.2208 97.4196 90.1689 97.6839 91.0425 98.717 91.568 99.8402 92.109 100.984 91.9239 102.129 91.7387 103.144 90.4531 102.606 89.4263 102.106 88.4701 100.601 88.2545 100.342 87.2065 100.039 85.9796 101.776 84.8883 101.385 83.6866 101.214 83.1602 100.689 82.8504 100.287 82.4704 99.3136 81.5167 99.0267 80.063 99.5644 78.8111 98.234 79.0451 96.8726 78.6191 95.9129 77.6684 95.0395 76.787 94.3427 75.3965 93.1025 75.4359 91.9643 75.4721 90.984 76.7999 89.9198 76.3948 89.658 76.2952 89.382 76.0923 89.1283 76.2112 88.9598 76.3206 88.851 76.5013 88.833 76.7013 88.5626 77.9943 89.0278 79.4675 88.3231 80.5848 87.5562 81.8007 85.7824 81.9693 84.8528 83.0657 84.3481 83.6608 84.1526 84.4628 83.6887 85.0903 83.2248 85.7177 82.2403 86.1167 81.6836 85.5699 82.247 84.4116 81.9356 83.0177 80.9328 82.2093 80.416 81.8721 79.8589 81.6011 79.2745 81.4027 78.6216 81.1263 78.0004 80.7801 77.4219 80.3702 77.1321 80.1954 76.8966 79.9434 76.7418 79.6425 76.6193 79.2657 76.6358 78.8574 76.7883 78.4917 77.3636 76.8423 78.8053 75.6473 80.5329 75.3881 81.274 75.2872 82.1367 75.3228 82.6272 74.758 82.8868 74.4592 83.0229 74.0074 83.3997 73.8861 83.6406 73.8376 83.8908 73.8684 84.1128 73.9739L86.8794 74.9477C87.1881 75.087 87.5278 75.1432 87.8649 75.1107 88.2116 75.0639 88.4636 74.7577 88.4427 74.4085 88.3543 73.949 87.6474 73.7286 87.7117 73.2652 87.7477 73.115 87.8284 72.9793 87.9432 72.876 89.9647 70.7243 92.8418 69.5882 95.7879 69.7781 96.1371 70.3516 95.5849 71.0307 95.1254 71.5203 94.6659 72.0098 94.2966 72.8846 94.8523 73.2614 95.08 73.3777 95.3334 73.4347 95.5889 73.4273 96.27 73.5195 96.932 73.7203 97.5495 74.022 98.5055 74.4381 99.4432 74.8933 100.362 75.3876 100.281 74.7815 100.204 74.1429 100.434 73.5762 100.663 73.0094 101.316 72.5649 101.887 72.7856 102.436 72.9983 102.718 73.7261 103.304 73.7928 104.085 73.8817 104.393 72.7277 104.067 72.0124 103.74 71.2971 103.095 70.6982 103.041 69.9139 103.004 69.3847 103.206 68.7285 102.783 68.4081 102.633 68.3119 102.462 68.252 102.284 68.2332L91.7304 66.2911C91.1037 66.1758 90.1982 66.2642 90.1704 66.9008 90.1549 67.2562 90.4724 67.6077 90.3318 67.9344 90.1817 68.2832 89.6888 68.2513 89.3297 68.3746 88.7727 68.566 88.4931 69.2275 88.5466 69.8141 88.6446 70.397 88.8703 70.951 89.2076 71.4363 88.5212 71.1492 87.4818 71.0964 86.7953 70.8094Z" fill="#3F3D56" fill-rule="nonzero" fill-opacity="1" transform="matrix(1.00058 0 0 1 -3.11104 -3.51328)"/><path d="M78.3744 61.8505C77.0111 61.3993 75.5112 61.8485 74.6203 62.9747 74.4465 63.2036 74.3006 63.519 74.4461 63.7667 74.6547 64.1219 75.1861 63.9816 75.5779 63.8546 76.1538 63.6488 76.7807 63.6339 77.3657 63.8119 77.7336 63.9382 78.0628 64.1615 78.4323 64.283 78.7989 64.4363 79.2201 64.3748 79.5275 64.123 79.7811 63.8643 79.797 63.4622 79.7974 63.1 79.8331 62.8545 79.756 62.6061 79.5878 62.4238 79.4399 62.3381 79.2737 62.289 79.1029 62.2804 78.7206 62.2096 78.3749 62.0076 78.1256 61.7093" fill="#3F3D56" fill-rule="nonzero" fill-opacity="1" transform="matrix(1.00058 0 0 1 -3.11104 -3.51328)"/><path d="M82.1799 60.7909C81.7004 60.7648 81.2906 61.1323 81.2645 61.6118 81.257 61.7504 81.2827 61.8887 81.3396 62.0154 81.797 62.1401 82.2748 62.1712 82.7446 62.107 83.2236 62.0326 83.611 61.6774 83.7266 61.2066 83.1735 61.3073 82.6029 61.1983 82.1259 60.9009" fill="#3F3D56" fill-rule="nonzero" fill-opacity="1" transform="matrix(1.00058 0 0 1 -3.11104 -3.51328)"/><path d="M94.9477 59.0214C93.7028 59.2861 92.4935 59.6969 91.345 60.2453 92.4566 60.6725 93.1584 61.7761 93.0738 62.964 93.0252 63.1862 93.0309 63.4167 93.0902 63.6362 93.2226 63.957 93.606 64.0774 93.9431 64.1597 94.5487 64.344 95.1811 64.4247 95.8135 64.3985 96.4563 64.3648 97.0387 64.009 97.3618 63.4523 97.4535 63.1923 97.561 62.9381 97.6838 62.6912 98.4918 61.4607 100.892 62.9486 101.76 61.7593 102.065 61.3403 102.037 60.7096 102.436 60.3777 102.642 60.233 102.88 60.1419 103.131 60.1125 104.875 59.7659 106.637 59.5149 108.409 59.3607 109.249 59.2876 110.343 58.9861 110.35 58.1434 107.188 57.5223 103.909 57.9634 101.023 59.3982 99.9832 59.9189 98.608 61.0144 97.6065 60.324 97.2315 60.0655 97.2501 59.3694 96.734 59.0787 96.2063 58.7815 95.5078 58.9024 94.9477 59.0214Z" fill="#3F3D56" fill-rule="nonzero" fill-opacity="1" transform="matrix(1.00058 0 0 1 -3.11104 -3.51328)"/><path d="M105.29 60.9554 106.774 61.2406C105.713 61.1936 104.814 62.0159 104.767 63.0772 104.764 63.1599 104.765 63.2428 104.772 63.3253 106.162 63.7897 107.678 63.3377 109.142 63.3995 110.607 63.4612 112.31 64.5072 112.06 65.9514 111.985 66.3881 111.733 66.8245 111.864 67.2478 111.956 67.5445 112.217 67.755 112.365 68.0282 112.673 68.5976 112.427 69.3179 112.038 69.8355 111.65 70.3531 111.127 70.7661 110.786 71.3162 109.938 72.6843 110.42 74.453 110.925 75.9814 111.071 76.5589 111.341 77.0978 111.716 77.5608 112.465 78.3569 113.685 78.4261 114.778 78.4421 115.573 78.4537 116.484 78.4144 116.987 77.7982 117.644 76.9936 117.185 75.7384 117.617 74.7942 118.01 73.9366 119.01 73.5687 119.916 73.3078 121.577 72.8298 123.269 72.4234 124.839 71.7014 126.788 70.8048 128.61 69.4075 130.752 69.2921 131.353 69.2598 131.969 69.3307 132.548 69.166 133.127 69.0013 133.677 68.5008 133.633 67.9004 133.596 67.3875 133.162 67.0108 132.823 66.6241 132.484 66.2375 132.217 65.6429 132.529 65.2337L138.145 64.1848C137.747 63.1 137.437 61.6713 138.351 60.9651 138.681 60.7104 139.123 60.6085 139.404 60.3005 139.883 59.7755 139.642 58.8712 139.089 58.4248 138.537 57.9783 137.789 57.8747 137.081 57.8159 134.619 57.6114 132.142 57.7465 129.675 57.8817 124.852 58.1461 120.03 58.4104 115.207 58.6748 114.236 58.728 113.115 58.6467 112.225 58.9779 111.471 59.2583 110.935 59.773 110.073 59.9539 108.481 60.2877 106.73 60.0618 105.29 60.9554Z" fill="#3F3D56" fill-rule="nonzero" fill-opacity="1" transform="matrix(1.00058 0 0 1 -3.11104 -3.51328)"/><path d="M131.883 72.689C131.732 72.6651 131.577 72.7002 131.451 72.787 131.368 72.8789 131.318 72.9964 131.311 73.1202 131.215 73.6667 131.329 74.2292 131.63 74.6951 131.943 75.1606 132.483 75.4197 133.042 75.3719 133.71 75.2867 134.203 74.7165 134.817 74.4382 135.765 74.0097 139.787 73.3417 137.004 71.8385 136.046 71.3205 135.426 71.7778 134.67 72.119 133.81 72.5589 132.847 72.7559 131.883 72.689Z" fill="#3F3D56" fill-rule="nonzero" fill-opacity="1" transform="matrix(1.00058 0 0 1 -3.11104 -3.51328)"/><path d="M156.253 60.1068C155.929 60.2395 155.657 60.4761 155.48 60.7796 155.312 61.0997 155.424 61.4958 155.735 61.6801 155.856 61.7241 155.985 61.7445 156.114 61.7403L157.435 61.7797C157.996 61.7965 158.697 61.916 158.848 62.4568 158.96 62.8584 158.709 63.3744 159.012 63.6614 159.142 63.7619 159.298 63.8227 159.461 63.8367 159.896 63.9484 160.351 63.9631 160.792 63.8796 161.753 63.6218 161.248 63.0352 161.551 62.5128 162.014 61.7136 161.934 62.1974 162.75 61.7393 163.353 61.401 164.132 60.7874 163.629 59.9252 162.754 58.4258 157.544 59.4627 156.253 60.1068Z" fill="#3F3D56" fill-rule="nonzero" fill-opacity="1" transform="matrix(1.00058 0 0 1 -3.11104 -3.51328)"/><path d="M182.327 59.353 181.56 59.4553C179.83 59.6862 178.091 59.9191 176.425 60.4386 177.146 60.7237 177.903 60.9094 178.674 60.9904 179.098 61.0113 179.52 61.0712 179.934 61.1695 180.669 61.3886 181.411 61.9543 182.122 61.6645 182.563 61.4848 182.706 61.0259 183.072 60.7826 183.324 60.6147 184.28 60.3428 184.387 60.1733 185.251 58.8028 182.992 59.2643 182.327 59.353Z" fill="#3F3D56" fill-rule="nonzero" fill-opacity="1" transform="matrix(1.00058 0 0 1 -3.11104 -3.51328)"/><path d="M185.696 62.8393C184.671 63.4123 183.72 64.1085 182.865 64.9124 182.504 65.2512 182.136 65.6726 182.169 66.1661 182.212 66.8222 182.911 67.2027 183.517 67.459L185.969 68.4972C186.266 68.0779 185.994 67.4991 185.687 67.0871 185.379 66.675 185.014 66.1983 185.15 65.7025 185.305 65.1367 185.994 64.9438 186.573 64.8464 187.516 64.6875 190.058 64.7003 189.753 63.1812 189.393 61.3912 186.642 62.3104 185.696 62.8393Z" fill="#3F3D56" fill-rule="nonzero" fill-opacity="1" transform="matrix(1.00058 0 0 1 -3.11104 -3.51328)"/><path d="M185.202 164.135C184.969 164.811 184.947 165.607 185.351 166.197 185.804 166.859 186.711 167.106 187.495 166.938 188.276 166.73 188.973 166.282 189.486 165.658 189.956 165.134 190.342 164.542 190.632 163.901 191.035 162.903 191.32 161.861 191.48 160.795L192.242 156.798C192.412 155.905 192.405 153.165 190.763 154.058 190.315 154.302 189.276 156.227 188.806 156.772 187.959 157.756 187.846 158.711 187.4 159.903 186.842 161.395 185.719 162.64 185.202 164.135Z" fill="#3F3D56" fill-rule="nonzero" fill-opacity="1" transform="matrix(1.00058 0 0 1 -3.11104 -3.51328)"/><path d="M271.931 184.591C271.394 184.382 270.872 184.134 270.371 183.849 269.868 185.231 269.6 186.689 269.58 188.16L273.256 186.079C273.809 185.766 274.436 185.331 274.424 184.696 274.435 184.536 274.357 184.383 274.221 184.298 274.14 184.265 274.051 184.255 273.963 184.268 273.418 184.313 272.921 184.581 272.407 184.768 271.893 184.955 271.291 185.053 270.819 184.776" fill="#3F3D56" fill-rule="nonzero" fill-opacity="1" transform="matrix(1.00058 0 0 1 -3.11104 -3.51328)"/><path d="M291.326 185.827C290.923 185.936 290.529 186.078 290.147 186.25 289.304 186.679 288.73 187.494 287.97 188.06 287.244 188.601 286.369 188.898 285.51 189.187 285.258 189.41 285.374 189.86 285.648 190.056 285.943 190.224 286.281 190.3 286.619 190.274 287.511 190.294 288.451 190.302 289.232 189.872 289.673 189.586 290.085 189.259 290.463 188.895 291.376 188.133 292.473 187.63 293.559 187.144 293.954 186.995 294.32 186.776 294.638 186.499 295.321 185.826 295.369 184.789 294.385 184.56 293.59 184.376 292.083 185.582 291.326 185.827Z" fill="#3F3D56" fill-rule="nonzero" fill-opacity="1" transform="matrix(1.00058 0 0 1 -3.11104 -3.51328)"/><path d="M299.896 180.229C299.986 179.291 299.64 178.365 298.958 177.716 298.948 178.641 298.919 179.627 298.399 180.393 298.028 180.938 297.446 181.306 297.04 181.826 296.634 182.345 296.453 183.169 296.93 183.624 297.235 183.856 297.606 183.984 297.989 183.989 298.937 184.101 300.036 184.163 300.701 183.478 301.064 183.103 301.241 182.549 301.684 182.274 301.849 182.205 301.996 182.099 302.115 181.966 302.298 181.675 302.008 181.292 301.68 181.187 301.353 181.082 300.993 181.131 300.664 181.032 300.335 180.932 300.033 180.563 300.202 180.263" fill="#3F3D56" fill-rule="nonzero" fill-opacity="1" transform="matrix(1.00058 0 0 1 -3.11104 -3.51328)"/><path d="M284.665 146.294C284.167 146.415 283.652 146.445 283.143 146.384 282.299 146.228 281.641 145.592 280.959 145.07 279.338 143.835 277.367 143.147 275.33 143.103 273.477 143.068 271.607 143.57 269.787 143.22 269.906 143.881 270.472 144.377 271.075 144.672 271.679 144.967 272.346 145.115 272.952 145.404 273.924 145.871 274.695 146.673 275.123 147.662 275.319 148.119 275.442 148.615 275.738 149.013 276.343 149.827 277.489 150.006 278.502 149.94 279.821 149.853 281.199 149.473 282.427 149.965 283.366 150.341 284.038 151.163 284.822 151.802 285.607 152.441 286.711 152.916 287.611 152.454 285.692 151.833 284.399 150.035 284.421 148.018 285.304 148.099 287.848 148.068 287.711 146.567 287.595 145.295 285.423 146.157 284.665 146.294Z" fill="#3F3D56" fill-rule="nonzero" fill-opacity="1" transform="matrix(1.00058 0 0 1 -3.11104 -3.51328)"/><path d="M273.112 156.641C273.269 155.781 274.127 155.021 273.86 154.189 273.675 153.613 273.007 153.329 272.403 153.315 271.799 153.301 271.205 153.481 270.601 153.498 270.207 153.477 269.813 153.482 269.42 153.514 268.221 153.712 267.481 154.969 266.351 155.416 265.663 155.688 264.891 155.636 264.176 155.824 262.553 156.25 261.527 157.784 260.392 159.02 258.559 161.009 256.171 162.402 253.538 163.018 252.615 163.231 251.623 163.368 250.89 163.967 249.918 164.761 249.679 166.121 249.463 167.357 248.866 170.769 247.954 174.118 246.738 177.362L250.591 177.854C251.324 177.947 252.083 178.039 252.789 177.822 253.302 177.628 253.788 177.369 254.235 177.052 255.951 175.986 257.872 175.293 259.873 175.017 260.882 174.878 261.94 174.853 262.887 175.228 263.834 175.603 264.646 176.453 264.725 177.469 265.56 177.209 266.469 177.431 267.091 178.044 267.695 178.659 268.09 179.448 268.221 180.299 268.323 180.827 268.424 181.458 268.913 181.679 269.312 181.86 269.77 181.665 270.207 181.631 271.688 181.512 272.918 183.24 274.374 182.942 275.936 182.623 276.319 180.284 277.843 179.816 278.718 179.547 279.945 179.874 280.364 179.06 280.733 178.342 279.997 177.514 280.073 176.711 280.166 175.722 281.333 175.302 282.232 174.88 285.333 173.425 286.805 169.251 285.302 166.173 284.412 164.349 282.66 162.914 282.337 160.91 282.088 159.368 282.695 157.571 281.713 156.357 281.213 155.74 280.366 155.399 280.069 154.663 279.881 154.199 279.956 153.673 279.856 153.184 279.755 152.694 279.328 152.182 278.844 152.308 277.44 152.677 276.992 157.014 276.241 158.067 275.098 159.669 272.753 158.614 273.112 156.641Z" fill="#3F3D56" fill-rule="nonzero" fill-opacity="1" transform="matrix(1.00058 0 0 1 -3.11104 -3.51328)"/><path d="M247.164 147.932C246.684 147.798 246.16 147.665 245.701 147.858 245.241 148.05 244.973 148.725 245.342 149.06 248.228 148.947 251.132 148.836 253.993 149.228 257.29 149.679 260.553 150.798 263.865 150.469 261.973 149.911 260.05 149.464 258.106 149.132L254.864 148.513C253.995 148.331 253.116 148.195 252.232 148.106 250.382 147.954 248.982 148.442 247.164 147.932Z" fill="#3F3D56" fill-rule="nonzero" fill-opacity="1" transform="matrix(1.00058 0 0 1 -3.11104 -3.51328)"/><path d="M250.053 137.88C249.814 137.86 249.517 137.843 249.393 138.049 249.275 138.246 249.41 138.506 249.347 138.727 249.26 139.028 248.865 139.105 248.554 139.064 248.242 139.023 247.906 138.925 247.63 139.075 247.343 139.271 247.22 139.633 247.328 139.964 247.44 140.283 247.623 140.574 247.861 140.815 248.269 141.328 248.734 141.794 249.246 142.203 250.238 142.936 251.582 143.288 252.207 144.351 252.295 144.557 252.43 144.74 252.602 144.884 252.902 145.074 253.293 144.929 253.616 144.781L254.748 144.264C254.952 144.191 255.134 144.067 255.277 143.904 255.536 143.553 255.377 143.055 255.16 142.676 254.943 142.298 254.665 141.907 254.712 141.474 254.795 140.701 255.788 140.406 256.197 139.744 256.608 139.078 256.34 138.219 256.388 137.437 256.443 136.523 257.018 135.333 256.094 134.65 255.308 134.069 254.557 134.606 253.993 135.247 252.803 136.599 252.24 138.063 250.053 137.88Z" fill="#3F3D56" fill-rule="nonzero" fill-opacity="1" transform="matrix(1.00058 0 0 1 -3.11104 -3.51328)"/><path d="M256.924 124.216C257.311 124.956 258.117 125.398 258.538 126.118 258.995 126.899 258.943 127.908 259.438 128.666 259.947 129.442 260.97 129.855 261.255 130.738 261.566 131.703 260.86 132.875 261.423 133.718 261.842 134.267 262.627 134.373 263.176 133.954 263.204 133.933 263.231 133.91 263.258 133.886 263.751 133.349 263.727 132.516 263.202 132.009 262.869 131.705 262.39 131.573 262.112 131.218 261.967 131.014 261.87 130.778 261.829 130.531 261.678 129.817 261.702 129.076 261.9 128.374 261.975 128.195 261.994 127.998 261.955 127.809 261.829 127.445 261.336 127.419 260.99 127.25 260.204 126.867 260.223 125.757 260.36 124.893 260.269 125.468 258.22 124.49 258.006 124.164 257.579 123.517 257.811 122.269 257.727 121.553 256.807 121.997 256.452 123.311 256.924 124.216Z" fill="#3F3D56" fill-rule="nonzero" fill-opacity="1" transform="matrix(1.00058 0 0 1 -3.11104 -3.51328)"/><path d="M236.284 135.601C235.906 135.178 235.337 134.735 234.83 134.99 234.443 135.185 234.336 135.72 234.488 136.126 234.673 136.52 234.957 136.859 235.313 137.109 236.369 137.981 237.507 138.767 238.429 139.78 240.078 141.592 240.952 144.038 242.746 145.708 243.106 146.095 243.584 146.354 244.105 146.444 244.628 146.492 245.215 146.158 245.275 145.636 245.324 145.207 245.025 144.822 244.732 144.504 244.035 143.746 243.273 143.049 242.615 142.257 242.311 141.952 242.12 141.554 242.073 141.126 242.07 140.7 242.459 140.253 242.872 140.359 242.37 140.231 241.997 139.393 241.259 139.236 240.643 139.105 240.494 139.486 239.761 139.172 238.362 138.572 237.264 136.698 236.284 135.601Z" fill="#3F3D56" fill-rule="nonzero" fill-opacity="1" transform="matrix(1.00058 0 0 1 -3.11104 -3.51328)"/><path d="M269.156 94.3819C268.754 94.2627 268.36 94.1217 267.974 93.9598 266.935 93.648 265.561 94.4114 265.699 95.487 265.791 96.2017 266.456 96.6835 266.824 97.3034 267.368 98.2227 267.223 99.3887 266.937 100.418 266.867 100.737 266.733 101.038 266.544 101.304 266.279 101.585 265.963 101.813 265.613 101.974 264.21 102.761 262.973 103.811 261.97 105.069 261.861 105.185 261.785 105.328 261.75 105.483 261.701 105.846 262.066 106.111 262.272 106.414 262.731 107.087 262.399 107.992 262.445 108.805 262.431 109.039 262.538 109.263 262.73 109.398 263.006 109.538 263.333 109.3 263.483 109.029 263.98 108.128 263.606 106.683 264.538 106.249 264.714 106.167 264.928 106.132 265.046 105.977 265.233 105.731 265.052 105.367 265.147 105.074 265.289 104.632 265.892 104.613 266.355 104.632 267.153 104.666 267.95 104.559 268.711 104.319 269.01 104.248 269.281 104.091 269.491 103.867 269.77 103.519 269.745 103.025 269.689 102.582 269.41 100.377 268.712 98.2465 267.632 96.3042 268.451 96.4088 269.342 96.4995 270.049 96.0726 270.444 95.8336 270.919 95.1188 270.723 94.6323 270.412 93.863 269.852 94.5106 269.156 94.3819Z" fill="#3F3D56" fill-rule="nonzero" fill-opacity="1" transform="matrix(1.00058 0 0 1 -3.11104 -3.51328)"/><path d="M164.155 106.508C164.253 107.034 164.349 107.587 164.177 108.094 164.005 108.6 163.463 109.023 162.951 108.868 162.554 108.747 162.324 108.348 162.042 108.043 160.474 106.35 156.935 107.331 155.967 105.236 155.571 104.381 155.84 103.357 155.57 102.454 155.22 101.381 154.189 100.681 153.063 100.751 152.563 100.823 152.077 100.968 151.62 101.182 148.557 102.408 145.341 103.213 142.061 103.573 141.437 103.611 140.821 103.723 140.224 103.907 138.877 104.395 137.957 105.644 137.302 106.918 136.647 108.192 136.163 109.571 135.285 110.704 134.363 111.893 133.07 112.726 131.863 113.627 131.399 113.927 131.012 114.332 130.734 114.811 130.473 115.348 130.488 115.972 130.508 116.569L130.755 123.817C130.786 124.75 130.826 125.715 131.243 126.55 131.764 127.592 132.794 128.274 133.508 129.194 134.237 130.14 134.616 131.309 134.583 132.502 134.567 132.982 134.52 133.55 134.893 133.851 135.121 133.999 135.387 134.075 135.658 134.071L145.463 134.874C147.188 135.015 149.099 135.247 150.225 136.561 150.757 137.181 151.184 138.073 151.998 138.139 152.347 138.168 152.687 138.025 153.036 137.997 153.917 137.927 154.691 138.596 155.18 139.333 155.919 140.455 156.255 141.796 156.131 143.135 156.051 143.975 155.791 144.792 155.734 145.634 155.521 148.839 158.237 151.623 158.29 154.834 158.321 156.723 157.424 158.488 156.55 160.163 157.961 162.3 156.806 165.147 157.367 167.646 157.9 170.016 159.877 171.872 160.37 174.252 160.595 175.341 160.608 176.682 161.569 177.243 161.99 177.448 162.458 177.542 162.926 177.514 165.749 177.548 168.54 176.912 171.071 175.66 172.259 175.071 173.49 174.191 173.697 172.881 173.865 171.825 173.329 170.644 173.874 169.724 174.516 168.639 176.162 168.725 177.107 167.892 178.641 166.539 177.445 163.96 178.066 162.012 178.625 160.261 180.547 159.331 181.5 157.76 181.875 157.084 182.144 156.355 182.298 155.597 182.734 153.787 183.006 151.941 183.11 150.081 183.135 148.952 183.218 147.824 183.359 146.703 184.387 140.32 190.697 136.046 192.746 129.914 192.941 129.329 193.033 128.549 192.512 128.217 192.203 128.07 191.853 128.033 191.52 128.113L187 128.683C186.439 128.754 185.844 128.82 185.328 128.587 184.812 128.354 184.443 127.702 184.716 127.206 185.484 125.816 183.905 124.058 183.203 122.633 181.314 118.796 179.064 115.147 176.484 111.736 176.319 111.56 176.215 111.336 176.189 111.096L177.472 111.139C177.039 109.585 176.324 107.885 174.815 107.316 173.964 106.996 173.022 107.107 172.114 107.156 169.515 107.298 166.728 106.906 164.155 106.508Z" fill="#3F3D56" fill-rule="nonzero" fill-opacity="1" transform="matrix(1.00058 0 0 1 -3.11104 -3.51328)"/><path d="M172.117 71.4917C172.797 72.2142 173.559 72.9801 174.543 73.106 176.282 73.3284 177.532 71.5307 178.328 69.9692 178.389 70.7969 179.098 71.4255 179.927 71.3871 180.356 71.315 180.766 71.1548 181.13 70.9168 184.574 69.0345 188.432 68.0372 192.357 68.0144 192.279 67.3986 192.679 66.8232 193.283 66.6814 194.081 66.5232 194.8 67.2132 195.185 67.9299 195.57 68.6467 195.81 69.4774 196.422 70.0139 197.034 70.5504 198.218 70.527 198.459 69.7501 198.691 69.0043 197.914 68.3682 197.269 67.9285 196.623 67.4888 195.943 66.6749 196.378 66.026 199.675 65.296 202.994 64.5632 206.369 64.4181 206.943 64.4381 207.516 64.3395 208.05 64.1284 208.565 63.8758 208.974 63.3025 208.836 62.7462 207.329 63.1003 205.759 62.5078 204.861 61.2471 209.544 60.8607 214.524 60.5314 218.674 62.7347 219.172 63.8038 216.634 64.6932 217.313 65.6574 217.53 65.965 217.964 66.001 218.34 66.008 221.224 66.0615 224.124 66.114 226.975 65.6787 228.017 65.5196 229.07 65.295 230.116 65.424 231.858 65.6389 233.348 66.8015 235.063 67.1805 235.76 67.3348 236.543 67.34 237.131 66.9342 237.719 66.5284 237.972 65.6044 237.49 65.0768 239.104 63.495 241.783 63.887 243.912 64.6443 246.041 65.4017 248.058 66.623 250.312 66.7918 251.928 66.9128 253.566 66.4781 255.163 66.7544 256.167 66.9281 257.101 67.3745 258.081 67.6487 259.936 68.1675 261.899 68.058 263.824 68.0829 268.738 68.1491 273.599 69.1149 278.165 70.9324 278.759 71.1258 279.303 71.4473 279.759 71.8743 280.184 72.3292 280.4 73.0362 280.115 73.5894L275.397 72.9C275.841 73.7751 276.991 73.9242 277.925 74.2261 278.859 74.528 279.828 75.5594 279.266 76.3646 278.254 76.0424 277.337 77.0542 276.826 77.9851 276.315 78.916 275.692 80.0308 274.631 80.0875 273.682 80.1383 272.533 79.3297 271.914 80.0517 272.769 81.1305 273.502 82.3012 274.098 83.5422 274.709 84.8163 275.145 86.4216 274.318 87.5679 274.188 87.7725 273.991 87.9254 273.76 88.0004 273.085 88.1713 272.647 87.3455 272.163 86.845 271.553 86.2142 270.63 86.0356 269.804 85.7398 268.978 85.444 268.108 84.8621 268.043 83.987 268.003 83.4425 268.29 82.9364 268.502 82.4332 268.858 81.585 269.013 80.6662 268.957 79.7481 268.91 79.0095 268.703 78.2412 268.173 77.7251 267.642 77.2091 266.727 77.0454 266.157 77.518 265.891 77.7386 265.678 78.0913 265.333 78.1045 264.724 78.1279 264.256 77.0649 263.765 77.4278 263.823 77.8144 263.743 78.2089 263.539 78.5424 262.075 79.8154 259.826 79.2769 257.939 79.7266 257.042 79.9834 256.183 80.3586 255.385 80.8422 255.086 80.9699 254.832 81.1832 254.654 81.4552 254.419 81.9129 254.679 82.4991 255.094 82.8035 255.534 83.0735 256.029 83.2424 256.542 83.2979 258.843 83.7336 261.177 84.4081 262.993 85.8857 264.809 87.3634 266 89.806 265.426 92.0758L260.889 87.7408C261.061 89.561 261.159 91.3862 261.182 93.2163 261.212 93.5737 261.163 93.9331 261.039 94.2695 260.715 94.9839 259.839 95.2243 259.07 95.382 258.234 95.5409 257.685 96.3478 257.844 97.1843 257.855 97.2427 257.869 97.3004 257.887 97.3572 258.16 98.2467 258.84 98.9403 259.463 99.6313 260.087 100.322 260.7 101.108 260.781 102.035 260.863 102.962 260.164 104.006 259.235 103.942 258.532 103.893 258.01 103.263 257.709 102.625 257.409 101.986 257.231 101.275 256.78 100.733 255.415 99.0914 252.349 99.7947 251.126 98.0446 250.492 98.7635 250.276 99.7592 250.554 100.676 251.123 100.32 251.902 100.651 252.329 101.169 252.757 101.686 252.958 102.349 253.294 102.931 253.747 103.715 254.468 104.41 254.531 105.313 254.514 105.655 254.52 105.997 254.548 106.338 254.66 106.886 255.123 107.279 255.444 107.736 256.19 108.801 256.153 110.264 255.672 111.472 255.191 112.68 254.327 113.689 253.471 114.668 251.975 116.377 250.449 118.076 248.677 119.496 248.171 119.901 247.631 120.299 247.316 120.865 247.001 121.431 246.985 122.226 247.469 122.657 247.122 122.674 246.501 122.845 246.155 122.862 246.033 121.472 246.006 120.076 246.075 118.683 244.708 118.026 243.236 119.784 243.413 121.29 243.589 122.797 244.679 124.005 245.454 125.308 246.022 126.261 246.443 127.373 246.254 128.465 246.064 129.558 245.089 130.566 243.984 130.47 242.227 130.316 241.492 127.794 239.752 127.505 239.598 127.469 239.437 127.485 239.294 127.55 239.035 127.692 238.991 128.038 238.976 128.332 238.905 129.776 238.843 131.278 239.407 132.61 240.232 134.558 242.363 136.195 241.916 138.262 239.508 137.143 238.256 134.443 237.687 131.849 237.119 129.255 237.024 126.531 236.005 124.079 235.231 125.071 233.605 124.251 232.898 123.211 232.228 122.224 231.815 121.083 231.165 120.084 230.515 119.084 229.518 118.189 228.327 118.134 227.078 118.076 225.995 118.933 225.042 119.743 224.259 120.409 223.455 121.101 222.997 122.022 222.33 123.361 222.505 124.941 222.473 126.436 222.438 128.054 222.095 129.76 220.993 130.944 219.891 132.127 217.857 132.54 216.641 131.473 216.006 130.916 215.699 130.084 215.425 129.285 214.106 125.434 213.007 121.511 212.134 117.535 211.93 118.443 211.133 119.612 210.372 119.078 210.201 118.934 210.063 118.756 209.966 118.555 208.546 116.148 205.916 114.705 203.26 113.839 200.603 112.974 197.808 112.57 195.18 111.619 193.708 111.086 192.302 110.385 190.989 109.531 190.307 110.533 190.23 111.827 190.788 112.903 191.37 113.935 192.689 114.532 193.818 114.171 194.402 113.985 194.894 113.58 195.473 113.38 196.052 113.18 196.829 113.278 197.082 113.836 197.324 114.37 196.958 115.015 197.14 115.573 197.416 116.422 198.697 116.487 199.144 117.259 199.478 117.834 199.203 118.597 198.728 119.061 198.252 119.525 197.618 119.779 197.037 120.102 195.153 121.15 193.814 122.938 192.167 124.329 190.521 125.72 188.198 126.736 186.236 125.844 186.704 123.476 183.883 121.737 183.364 119.379 183.193 118.603 183.282 117.779 183.038 117.023 182.685 115.928 181.713 115.175 180.917 114.346 178.964 112.291 177.925 109.534 178.035 106.701 178.078 105.727 178.257 104.737 178.035 103.787 177.813 102.837 177.027 101.918 176.052 101.961 173.827 102.06 171.023 102.225 169.856 100.328 169.439 99.651 169.258 98.6594 169.86 98.1407 170.285 97.7747 170.913 97.8092 171.471 97.8641L176.485 98.3573C177.658 98.4727 178.925 98.5679 179.931 97.9548 180.938 97.3418 181.374 95.7144 180.442 94.9931 179.761 94.4661 178.541 94.4947 178.343 93.6567 178.179 92.9589 178.951 92.1671 178.534 91.5839 178.235 91.1657 177.562 91.2817 177.155 91.5952 176.747 91.9087 176.451 92.3671 175.995 92.6045 175.195 93.0209 174.239 92.6246 173.379 92.3553 172.518 92.0859 171.364 92.0631 170.946 92.8625 170.479 93.7567 171.36 94.9283 170.897 95.8242 170.284 97.0088 168.21 96.3344 167.349 97.3533 166.362 98.5225 168.021 100.266 167.688 101.76 166.823 102.188 165.797 102.13 164.986 101.608 164.186 101.064 163.751 100.125 163.851 99.1638 163.934 98.4919 164.284 97.806 164.049 97.1711 163.86 96.6577 163.344 96.3521 162.865 96.0874L157.993 93.3949C157.54 94.2341 158.112 95.2744 158.827 95.9047 159.543 96.535 160.439 97.0097 160.908 97.8393 161.525 99.0323 161.107 100.499 159.953 101.187 159.812 101.284 159.636 101.315 159.47 101.271 159.313 101.179 159.2 101.027 159.157 100.85 158.297 98.65 157.006 96.4809 154.943 95.3316 152.879 94.1824 149.914 94.4187 148.561 96.3546 148.239 96.8145 148.024 97.3386 147.744 97.8248 146.256 100.408 143.067 101.631 140.087 101.551 139.796 101.567 139.506 101.499 139.252 101.355 138.77 101.022 138.792 100.316 138.866 99.7358L139.179 97.2719C139.241 96.7772 139.332 96.2303 139.724 95.9215 140.276 95.4861 141.072 95.7609 141.775 95.7508 142.866 95.6997 143.809 94.9722 144.135 93.9298 144.424 92.8825 144.11 91.7611 143.319 91.0164 142.997 90.7137 142.564 90.3336 142.735 89.9257 142.872 89.6973 143.104 89.5414 143.367 89.4999 144.63 89.1332 145.964 89.0371 147.205 88.6045 148.447 88.1718 149.651 87.2866 149.945 86.0051 150.035 85.6123 150.076 85.1366 150.429 84.9419 150.606 84.8671 150.796 84.8283 150.988 84.8276 152.384 84.6291 153.397 83.3981 153.323 81.9908 153.918 81.575 154.751 81.8808 155.327 82.3231 155.903 82.7653 156.411 83.3496 157.111 83.5402 158.417 83.8955 159.678 82.7397 161.031 82.7344 161.6 82.7321 162.189 82.9333 162.724 82.7404 163.267 82.5449 163.591 82.0047 164.007 81.6057 164.424 81.2067 165.154 80.9633 165.539 81.3932L165.211 78.9678C166.545 79.3048 167.96 79.049 169.092 78.2662L164.86 76.8363C164.712 76.7995 164.577 76.7268 164.464 76.6247 164.156 76.2934 164.462 75.7772 164.712 75.4006 165.311 74.4996 165.411 73.0156 164.427 72.567 163.755 72.2609 162.984 72.6284 162.339 72.9879L159.25 74.7102C159.152 75.2973 159.87 75.63 160.315 76.0255 161.052 76.6805 161.118 77.8089 160.463 78.5458 160.13 78.9212 159.653 79.1386 159.151 79.1448 159.563 79.6804 159.709 80.3743 159.548 81.0307L157.47 81.1801C157.237 81.2271 156.995 81.1798 156.796 81.0486 156.574 80.8512 156.604 80.5052 156.552 80.2125 156.428 79.5058 155.736 79.0106 155.03 78.8836 154.324 78.7566 153.601 78.9194 152.902 79.0801 152.605 79.1869 152.279 79.1794 151.987 79.059 151.82 78.9503 151.693 78.7899 151.626 78.6022 151.319 77.8589 151.606 76.9852 152.098 76.3495 152.59 75.7139 153.264 75.2492 153.87 74.72 155.317 73.4498 156.381 71.8001 156.94 69.9573 158.084 69.4779 159.269 68.8267 160.413 68.3473 162.177 67.4543 164.155 67.0711 166.124 67.2407L169.999 67.3147C171.146 67.3366 172.324 67.3647 173.385 67.802 174.445 68.2393 175.377 69.1852 175.45 70.3301 175.495 70.5936 175.402 70.8617 175.202 71.0396 175.052 71.1214 174.883 71.1596 174.712 71.15 173.642 71.1876 173.186 71.4542 172.117 71.4917Z" fill="#3F3D56" fill-rule="nonzero" fill-opacity="1" transform="matrix(1.00058 0 0 1 -3.11104 -3.51328)"/><path d="M141.235 83.6343C141.544 83.3422 141.663 82.902 141.544 82.4941 140.793 82.2041 139.942 82.3648 139.348 82.9087 139.119 83.1409 138.921 83.4024 138.76 83.6864 138.251 84.517 137.801 85.5092 138.096 86.4376 138.144 86.6422 138.273 86.8185 138.453 86.9269 138.586 86.9799 138.728 87.0023 138.87 86.9922 139.431 86.9914 139.991 86.957 140.548 86.8889 140.89 86.8471 141.287 86.7506 141.419 86.4325 141.593 86.0144 141.173 85.5412 141.295 85.1053 141.376 84.9104 141.498 84.7355 141.653 84.5926 141.809 84.4468 141.887 84.2359 141.864 84.0236 141.815 83.8191 141.502 83.7031 141.389 83.8807" fill="#3F3D56" fill-rule="nonzero" fill-opacity="1" transform="matrix(1.00058 0 0 1 -3.11104 -3.51328)"/><path d="M144.143 79.8638C143.645 79.7494 143.131 79.7171 142.623 79.7683 142.51 79.7649 142.399 79.7903 142.299 79.8419 142.202 79.9134 142.132 80.0151 142.099 80.131 141.876 80.8461 142.24 81.6123 142.935 81.8913 143.118 81.9333 143.293 82.0036 143.454 82.0996 143.884 82.4333 143.61 83.1153 143.691 83.6534 143.783 84.2577 144.368 84.765 144.26 85.3667 144.176 85.8407 143.67 86.2161 143.751 86.6906 143.837 87.1877 144.467 87.337 144.97 87.3768 145.261 87.4278 145.561 87.3935 145.834 87.2778 146.106 87.0912 146.301 86.8102 146.378 86.4889 146.584 85.8762 146.671 85.2298 146.633 84.5846 146.631 84.2912 146.557 84.0027 146.418 83.7441 146.267 83.5393 146.099 83.3471 145.917 83.1695 144.953 82.0491 145.968 80.3779 144.143 79.8638Z" fill="#3F3D56" fill-rule="nonzero" fill-opacity="1" transform="matrix(1.00058 0 0 1 -3.11104 -3.51328)"/><path d="M270.804 167.633C270.804 167.633 197.031 125.286 165.271 133.31 165.271 133.31 97.9623 140.553 90.1616 156.489 90.1616 156.489 68.7654 89.6258 60.9647 87.3971" stroke="#6C63FF" stroke-width="0.540059" stroke-linecap="butt" stroke-linejoin="miter" stroke-miterlimit="10" stroke-opacity="0.8" fill="none" fill-rule="nonzero" transform="matrix(1.00058 0 0 1 -3.11104 -3.51328)"/><path d="M90.1616 156.489C102.531 123.503 213.97 86.9513 213.97 86.9513 198.146 90.9631 165.271 133.31 165.271 133.31 165.271 133.31 95.7336 82.7166 60.9647 87.3971 60.9647 87.3971 214.082 92.4118 270.804 167.633" stroke="#6C63FF" stroke-width="0.540059" stroke-linecap="butt" stroke-linejoin="miter" stroke-miterlimit="10" stroke-opacity="0.8" fill="none" fill-rule="nonzero" transform="matrix(1.00058 0 0 1 -3.11104 -3.51328)"/><path d="M61.0379 83.8838C61.0379 85.6686 59.591 87.1155 57.8062 87.1155 56.0213 87.1155 54.5745 85.6686 54.5745 83.8838 54.5745 82.0989 56.0213 80.652 57.8062 80.652 59.591 80.652 61.0379 82.0989 61.0379 83.8838Z" fill="#6C63FF" fill-rule="nonzero" fill-opacity="1" transform="matrix(1.00058 0 0 1 0.0492957 1.12666e-14)"/><path d="M90.2348 152.976C90.2348 154.761 88.7879 156.208 87.0031 156.208 85.2183 156.208 83.7714 154.761 83.7714 152.976 83.7714 151.191 85.2183 149.744 87.0031 149.744 88.7879 149.744 90.2348 151.191 90.2348 152.976Z" fill="#6C63FF" fill-rule="nonzero" fill-opacity="1" transform="matrix(1.00058 0 0 1 0.0492957 1.12666e-14)"/><path d="M214.043 83.438C214.043 85.2228 212.596 86.6697 210.812 86.6697 209.027 86.6697 207.58 85.2228 207.58 83.438 207.58 81.6532 209.027 80.2063 210.812 80.2063 212.596 80.2063 214.043 81.6532 214.043 83.438Z" fill="#6C63FF" fill-rule="nonzero" fill-opacity="1" transform="matrix(1.00058 0 0 1 0.0492957 1.12666e-14)"/><path d="M270.877 164.12C270.877 165.904 269.43 167.351 267.645 167.351 265.861 167.351 264.414 165.904 264.414 164.12 264.414 162.335 265.861 160.888 267.645 160.888 269.43 160.888 270.877 162.335 270.877 164.12Z" fill="#6C63FF" fill-rule="nonzero" fill-opacity="1" transform="matrix(1.00058 0 0 1 0.0492957 1.12666e-14)"/><path d="M165.345 129.797C165.345 131.581 163.898 133.028 162.113 133.028 160.328 133.028 158.881 131.581 158.881 129.797 158.881 128.012 160.328 126.565 162.113 126.565 163.898 126.565 165.345 128.012 165.345 129.797Z" fill="#6C63FF" fill-rule="nonzero" fill-opacity="1" transform="matrix(1.00058 0 0 1 0.0492957 1.12666e-14)"/></g></g></svg>