<svg width="164" height="121" xmlns="http://www.w3.org/2000/svg" xmlns:xlink="http://www.w3.org/1999/xlink" xml:space="preserve" overflow="hidden"><defs><clipPath id="clip0"><rect x="0" y="0" width="164" height="121"/></clipPath><clipPath id="clip1"><rect x="0" y="0" width="164" height="121"/></clipPath><clipPath id="clip2"><rect x="0" y="0" width="163" height="121"/></clipPath></defs><g clip-path="url(#clip0)"><g clip-path="url(#clip1)"><g clip-path="url(#clip2)"><g><g><path d="M151.692 31.2147C133.203 5.487 94.1468-4.94927 55.7362 6.29084 35.4296 12.2331 15.8504 24.1394 6.1474 47.1939-11.1978 88.4062 25.2206 101.568 49.0342 105.763 60.5492 107.792 71.3944 111.199 81.3048 115.838 99.1345 124.184 130.694 131.58 154.492 96.8143 171.741 71.616 164.007 48.3519 151.692 31.2147Z" fill="#F2F2F2" fill-rule="nonzero" fill-opacity="1" transform="matrix(1.00032 0 0 1 -1.59465 -1.8013)"/><path d="M44.501 36.3048C44.4493 35.8959 44.3447 35.4955 44.1898 35.1135 44.1499 34.9675 44.0504 34.845 43.9157 34.7759 43.8266 34.7527 43.7332 34.7517 43.6437 34.7728L42.2471 34.9865C42.1302 34.9919 42.0183 35.0354 41.9284 35.1103 41.7466 35.3016 41.9257 35.6097 41.9201 35.8736 41.9138 36.1703 41.6502 36.4112 41.3642 36.4909 41.0724 36.5499 40.7713 36.5461 40.481 36.4799L38.5282 36.1765C39.1033 35.9929 39.6152 35.6513 40.0055 35.1906 40.2625 34.8862 40.3992 34.3178 40.0278 34.1737 39.9175 34.1434 39.8024 34.1342 39.6886 34.1464 38.8039 34.1533 38.1076 33.4146 37.2794 33.1035 36.1919 32.7214 34.9821 33.0821 34.2813 33.9972L35.3216 34.0474C35.4195 34.042 35.5165 34.0679 35.5987 34.1213 35.8267 34.3086 35.5433 34.6684 35.5754 34.9617 35.6171 35.3428 36.1231 35.4241 36.5045 35.4627 36.8859 35.5012 37.3698 35.8111 37.1863 36.1477 35.2693 36.808 33.3185 34.8569 31.3052 35.0971 30.7956 35.1579 30.3145 35.358 29.817 35.4839 26.778 36.2528 23.6362 34.2013 20.5316 34.6358 19.8415 34.7534 19.1631 34.9323 18.5047 35.1703 18.0822 35.3091 17.6415 35.459 17.3344 35.7808 17.0274 36.1025 16.9106 36.6528 17.2014 36.9892 16.3998 37.0552 15.5928 36.9785 14.818 36.7626 15.2448 36.9999 15.508 37.4512 15.5045 37.9395 14.2528 38.1436 13.0343 38.5151 11.8817 39.0441 12.0968 39.4018 12.3481 39.7365 12.6315 40.043L11.0469 41.061C11.5823 41.1959 11.8591 41.9259 11.5478 42.3818 12.1028 42.1348 12.4469 41.496 13.0404 41.3665 13.4293 41.2816 13.825 41.4407 14.1939 41.5902 14.5628 41.7396 14.9683 41.8845 15.3502 41.7723 15.7321 41.6602 16.0138 41.165 15.7711 40.8495 17.4034 40.3733 19.0904 40.1097 20.7902 40.0654 20.9213 40.0489 21.0543 40.0741 21.1703 40.1375 21.3916 40.291 21.3334 40.6226 21.3214 40.8916 21.3095 41.1607 21.5192 41.5143 21.7597 41.393 21.4768 41.6383 21.7186 42.1001 21.99 42.3581 22.2614 42.6161 22.5886 42.972 22.4224 43.3076 22.379 43.3952 22.3055 43.4652 22.2638 43.5536 22.1406 43.8145 22.3361 44.1186 22.5668 44.2918 22.7975 44.4651 23.08 44.5861 23.2403 44.826 23.4005 45.0659 23.3277 45.4858 23.0412 45.5193L22.2268 44.4853C21.9486 44.7738 21.7578 45.1353 21.6767 45.5278 22.5403 46.2338 22.6702 47.6707 21.9472 48.5201 21.5777 48.9542 21.0523 49.2179 20.5937 49.5565 20.1351 49.8951 19.7108 50.3772 19.712 50.9472 19.714 51.932 19.6335 52.8469 20.0025 53.7599 20.683 55.4435 21.4686 57.0826 22.3548 58.6675 22.5875 59.0837 22.8883 59.5399 23.3597 59.6116 22.7639 58.1612 22.2276 56.6882 21.7507 55.1927 22.0613 55.1939 22.4202 55.2186 22.6023 55.4702 22.7531 55.6786 22.7207 55.9618 22.7675 56.2147 22.8271 56.4598 22.9265 56.6933 23.0617 56.9062L25.9067 61.974C26.1425 62.3941 26.4131 62.8451 26.8638 63.0152 27.152 63.124 27.4854 63.1035 27.7507 63.2601 27.9586 63.3829 28.0986 63.6008 28.3106 63.7164 28.9099 64.0433 29.7433 63.4163 30.3034 63.8067 30.4635 63.9183 30.5654 64.0956 30.713 64.2234 31.2303 64.6713 32.0788 64.3717 32.676 64.7058 33.0608 64.9212 33.2603 65.3519 33.4655 65.7423 33.9797 66.72 34.8117 67.6779 35.9136 67.7557 36.2598 67.7802 36.6134 67.7145 36.9517 67.7915 37.2901 67.8685 37.6231 68.1638 37.5688 68.5065 37.4757 69.0941 37.766 69.7375 37.688 70.3273 37.546 71.4015 36.0222 71.8736 35.8913 72.9493 35.8627 73.1849 35.9075 73.428 35.8515 73.6585 35.7827 73.941 35.5705 74.1711 35.4951 74.4519 35.3522 74.9842 35.7335 75.5138 36.1524 75.8719 36.5713 76.2299 37.071 76.5387 37.3 77.0399 37.542 77.5697 37.4232 78.1875 37.5019 78.7646 37.6737 80.0245 38.762 80.9585 39.8819 81.5608 40.2231 81.7442 40.5895 81.9219 40.8103 82.2402 41.0986 82.6557 41.0699 83.2034 41.1661 83.6998 41.4019 84.9156 42.4254 85.9174 42.4544 87.1554 42.4751 88.0354 41.9859 88.8337 41.6937 89.6641 41.1394 91.2739 41.3138 93.0453 42.1714 94.516 42.39 94.8851 42.6515 95.2331 42.8061 95.6333 43.082 96.3473 42.9925 97.159 43.2469 97.881 43.5833 98.8356 44.5076 99.624 44.4191 100.632 44.8387 101.504 45.7653 101.932 46.6971 102.191L48.367 102.656C48.6867 102.745 49.0208 102.835 49.3464 102.77 49.672 102.706 49.9827 102.435 49.9743 102.104 49.1554 101.919 48.3103 101.723 47.6352 101.224 46.9602 100.725 46.4978 99.8359 46.7539 99.0365 46.8726 98.6658 47.1253 98.2377 46.8851 97.9314 46.7476 97.7561 46.4961 97.7102 46.3409 97.5502 46.099 97.3007 46.1821 96.8814 46.356 96.5804 46.53 96.2795 46.7814 96.0105 46.8516 95.6701 46.9241 95.28 46.7466 94.8859 46.4064 94.6818 46.716 94.5649 46.9976 94.3842 47.2329 94.1515 47.4503 93.9033 47.5507 93.5206 47.3797 93.2384 47.8874 93.3028 48.4869 93.3344 48.8202 92.9459 49.0864 92.6358 49.0681 92.1721 48.9629 91.7771 48.8578 91.3821 48.68 90.9985 48.6745 90.5899 49.8458 90.6454 51.0197 90.6056 52.1845 90.4708 52.0161 89.9035 51.6333 89.4241 51.1174 89.1343 51.6449 89.0451 52.1255 88.4135 52.2922 87.905 52.4589 87.3966 52.4164 86.8428 52.3134 86.3177 52.2738 86.1825 52.2684 86.0396 52.2976 85.9018 52.357 85.7125 52.543 85.597 52.715 85.4982L55.3337 83.9943C55.49 83.916 55.6316 83.8114 55.7524 83.6851 56.0268 83.3629 55.9862 82.8764 55.8457 82.4771 55.7052 82.0779 55.4802 81.7025 55.4261 81.2827 55.2642 80.0274 56.6081 79.1266 57.0616 77.9449 57.2396 77.4811 57.2759 76.977 57.3103 76.4815 57.3473 75.9493 57.3501 75.3311 56.9414 74.9881 56.5497 74.6593 55.9376 74.7326 55.5277 74.4268 55.1519 74.1464 55.0222 73.6019 54.6116 73.3754 54.2388 73.1698 53.7713 73.3006 53.3566 73.2039 52.6265 73.0335 52.1671 72.1921 51.4214 72.1142 51.0007 72.0702 50.5245 72.2759 50.1797 72.0308 49.8759 71.8149 49.8637 71.381 49.8059 71.0128 49.5983 69.8407 48.6825 68.922 47.5111 68.7107 47.0774 68.6411 46.6052 68.6675 46.2362 68.4291 45.8625 68.1878 45.6912 67.7358 45.3976 67.4016 44.9246 66.8628 44.1795 66.6714 43.4816 66.5073L40.6426 65.8399C40.1387 65.7214 39.4891 65.6586 39.2186 66.1001 39.1386 66.2682 39.0819 66.4464 39.0502 66.6299 38.8423 67.3107 38.2191 67.7798 37.5073 67.7912 37.2694 67.3853 36.8839 67.0871 36.4313 66.9587 36.1435 66.8784 35.8353 66.8695 35.5608 66.7515 34.9538 66.4552 34.702 65.7231 34.9982 65.1161 35.0083 65.0955 35.0189 65.0752 35.0302 65.0551 35.3666 64.4561 35.2601 63.7058 34.77 63.2242 34.2873 62.7907 33.5889 62.686 32.9415 62.7294 32.772 62.3594 33.0555 61.942 33.361 61.6732 33.6665 61.4043 34.0374 61.14 34.1039 60.7385 34.2086 60.107 33.4028 59.6273 32.791 59.8157 32.1792 60.004 31.7887 60.5982 31.5306 61.184 31.3824 61.5201 31.2565 61.874 31.0229 62.1574 30.7893 62.4408 30.4131 62.6437 30.0572 62.5528 29.5535 62.424 29.3589 61.8255 29.2474 61.3176 29.0978 60.6362 28.9473 59.9454 28.9787 59.2484 29.01 58.5515 29.245 57.8359 29.7589 57.3641 30.5963 56.5953 31.881 56.6707 33.0112 56.7933 32.7442 56.4925 32.8102 55.9855 33.0959 55.7023 33.4021 55.4302 33.8228 55.3269 34.2202 55.4261 34.5607 55.497 34.8675 55.6804 35.0912 55.9468 35.4123 56.3384 35.5037 56.8671 35.7464 57.3116 35.9892 57.756 36.535 58.1351 36.9818 57.8967 37.3677 57.6907 37.429 57.1556 37.3329 56.7288 37.2369 56.3021 37.0329 55.8871 37.0677 55.4511 37.1341 54.6191 37.9966 54.1182 38.7576 53.7756 39.5187 53.4329 40.3902 52.9721 40.5108 52.1462 40.5149 51.9845 40.5454 51.8245 40.6011 51.6727 40.6855 51.5385 40.8028 51.4282 40.9419 51.3522 43.1631 49.8843 45.4213 48.3984 47.9601 47.5963 48.0921 47.5546 48.1077 47.6009 48.2423 47.5682 48.4307 47.4594 48.3058 47.1582 48.1252 47.0368 47.9446 46.9155 47.7032 46.8224 47.6573 46.6097 47.6236 46.4534 47.7158 46.2998 47.7397 46.1417 47.7985 45.753 47.3336 45.3942 46.9726 45.5496 46.7686 45.2795 47.1722 44.9657 47.4985 44.8759 48.4782 44.6062 49.484 44.4419 50.4987 44.3858 50.6157 44.3672 50.7357 44.3876 50.84 44.4438 51.0105 44.5619 50.9887 44.8326 50.8679 45.0011 50.7471 45.1696 50.5593 45.2754 50.4088 45.418 50.0736 45.7446 49.9482 46.2306 50.0837 46.6786 50.6134 46.948 51.1892 47.2254 51.7759 47.1305 52.3626 47.0355 52.8833 46.3764 52.6075 45.8499 52.3507 45.3597 51.5794 45.2491 51.4467 44.7118 51.2914 44.0827 52.182 43.5233 51.9814 42.9071 51.8935 42.6372 51.6245 42.4784 51.4181 42.2836 50.9192 41.7946 50.7721 41.0492 51.0479 40.4074 50.3657 40.5274 49.6678 40.309 49.1757 39.8215 48.7279 39.3696 48.3706 38.6567 47.7347 38.6769 47.1512 38.6955 46.6486 39.3762 46.103 39.1685 45.9687 39.1174 45.8272 39.0135 45.6971 39.0744 45.6108 39.1305 45.555 39.2231 45.5457 39.3257 45.4071 39.9886 45.6456 40.7439 45.2843 41.3168 44.8911 41.9402 43.9817 42.0266 43.505 42.5887 43.2463 42.8939 43.146 43.3051 42.9082 43.6268 42.6704 43.9485 42.1656 44.153 41.8802 43.8727 42.169 43.2788 42.0094 42.5642 41.4952 42.1497 41.2302 41.9768 40.9446 41.8379 40.645 41.7361 40.3102 41.5944 39.9917 41.4169 39.6951 41.2068 39.5466 41.1171 39.4258 40.988 39.3464 40.8337 39.2836 40.6404 39.2921 40.4311 39.3703 40.2436 39.6652 39.398 40.4044 38.7853 41.2901 38.6524 41.6702 38.6007 42.1125 38.6189 42.364 38.3293 42.497 38.1761 42.5668 37.9445 42.76 37.8823 42.8836 37.8574 43.0118 37.8732 43.1257 37.9273L44.5441 38.4266C44.7024 38.498 44.8765 38.5268 45.0494 38.5101 45.2272 38.4862 45.3564 38.3292 45.3456 38.1501 45.3003 37.9145 44.9378 37.8015 44.9708 37.5639 44.9893 37.4869 45.0307 37.4173 45.0895 37.3644 46.126 36.2612 47.6011 35.6787 49.1116 35.7761 49.2906 36.0701 49.0075 36.4183 48.7719 36.6693 48.5363 36.9203 48.347 37.3688 48.6319 37.562 48.7487 37.6216 48.8785 37.6509 49.0096 37.6471 49.3588 37.6943 49.6982 37.7973 50.0148 37.952 50.505 38.1653 50.9857 38.3987 51.457 38.6521 51.4154 38.3414 51.3757 38.014 51.4935 37.7234 51.6113 37.4328 51.946 37.2049 52.2385 37.318 52.5203 37.4271 52.6648 37.8002 52.965 37.8344 53.3655 37.88 53.5235 37.2884 53.3563 36.9216 53.189 36.5549 52.8578 36.2478 52.8301 35.8457 52.8115 35.5744 52.9147 35.2379 52.698 35.0736 52.6209 35.0243 52.5334 34.9936 52.4423 34.984L47.0313 33.9882C46.71 33.9291 46.2457 33.9744 46.2315 34.3008 46.2235 34.483 46.3863 34.6633 46.3142 34.8308 46.2372 35.0096 45.9845 34.9932 45.8004 35.0565 45.5148 35.1546 45.3715 35.4938 45.3989 35.7945 45.4491 36.0934 45.5649 36.3774 45.7378 36.6262 45.3859 36.479 44.8529 36.452 44.501 36.3048Z" fill="#3F3D56" fill-rule="nonzero" fill-opacity="1" transform="matrix(1.00032 0 0 1 -1.59465 -1.8013)"/><path d="M40.1835 31.7115C39.4845 31.4802 38.7155 31.7105 38.2587 32.2879 38.1696 32.4052 38.0948 32.5669 38.1694 32.694 38.2763 32.8761 38.5488 32.8041 38.7497 32.739 39.045 32.6335 39.3664 32.6258 39.6663 32.7171 39.855 32.7819 40.0237 32.8964 40.2132 32.9587 40.4011 33.0373 40.6171 33.0057 40.7747 32.8766 40.9047 32.744 40.9129 32.5378 40.9131 32.3521 40.9314 32.2263 40.8919 32.0989 40.8056 32.0054 40.7298 31.9615 40.6446 31.9363 40.557 31.9319 40.361 31.8956 40.1838 31.7921 40.0559 31.6391" fill="#3F3D56" fill-rule="nonzero" fill-opacity="1" transform="matrix(1.00032 0 0 1 -1.59465 -1.8013)"/><path d="M42.1346 31.1682C41.8888 31.1548 41.6787 31.3433 41.6653 31.5891 41.6614 31.6601 41.6746 31.7311 41.7038 31.796 41.9383 31.86 42.1833 31.8759 42.4241 31.843 42.6697 31.8048 42.8683 31.6228 42.9276 31.3814 42.6441 31.433 42.3515 31.3771 42.1069 31.2246" fill="#3F3D56" fill-rule="nonzero" fill-opacity="1" transform="matrix(1.00032 0 0 1 -1.59465 -1.8013)"/><path d="M48.6808 30.261C48.0425 30.3967 47.4225 30.6073 46.8337 30.8885 47.4036 31.1075 47.7634 31.6734 47.7201 32.2824 47.6951 32.3963 47.698 32.5145 47.7285 32.6271 47.7963 32.7915 47.9929 32.8532 48.1657 32.8954 48.4762 32.9899 48.8005 33.0313 49.1247 33.0179 49.4543 33.0006 49.7529 32.8182 49.9186 32.5328 49.9656 32.3994 50.0207 32.2691 50.0837 32.1425 50.4979 31.5116 51.7286 32.2745 52.1733 31.6647 52.33 31.4499 52.3157 31.1266 52.5199 30.9563 52.6256 30.8822 52.748 30.8355 52.8762 30.8204 53.7707 30.6427 54.6742 30.514 55.5827 30.4349 56.0131 30.3975 56.5742 30.2429 56.5778 29.8108 54.9564 29.4924 53.2752 29.7185 51.7957 30.4541 51.2626 30.7212 50.5575 31.2828 50.044 30.9288 49.8518 30.7963 49.8613 30.4394 49.5967 30.2904 49.3261 30.138 48.968 30.2 48.6808 30.261Z" fill="#3F3D56" fill-rule="nonzero" fill-opacity="1" transform="matrix(1.00032 0 0 1 -1.59465 -1.8013)"/><path d="M53.9832 31.2525 54.7443 31.3988C54.2002 31.3747 53.7395 31.7963 53.7154 32.3405 53.7135 32.3829 53.7144 32.4253 53.718 32.4676 54.4307 32.7057 55.2078 32.474 55.9586 32.5057 56.7094 32.5373 57.5829 33.0736 57.4547 33.8141 57.416 34.038 57.2867 34.2617 57.3539 34.4787 57.4011 34.6308 57.5352 34.7388 57.6109 34.8789 57.7687 35.1708 57.6426 35.5401 57.4434 35.8055 57.2441 36.0709 56.9763 36.2826 56.8014 36.5646 56.3664 37.2661 56.6136 38.1729 56.8727 38.9566 56.9476 39.2527 57.086 39.529 57.2782 39.7663 57.6621 40.1745 58.2877 40.21 58.8479 40.2182 59.2557 40.2241 59.7229 40.204 59.9808 39.888 60.3174 39.4756 60.082 38.832 60.3037 38.3479 60.505 37.9082 61.0179 37.7196 61.4826 37.5858 62.3339 37.3407 63.2015 37.1323 64.0063 36.7621 65.0057 36.3025 65.9398 35.5861 67.0382 35.5269 67.3464 35.5103 67.6622 35.5467 67.9591 35.4622 68.2559 35.3778 68.5379 35.1212 68.5154 34.8134 68.4962 34.5504 68.2737 34.3572 68.0998 34.159 67.926 33.9607 67.7894 33.6559 67.9492 33.4461L70.8285 32.9083C70.6244 32.3521 70.4654 31.6196 70.9344 31.2575 71.1036 31.1269 71.3301 31.0747 71.4742 30.9168 71.7198 30.6476 71.5963 30.184 71.3128 29.9551 71.0294 29.7262 70.6461 29.673 70.283 29.6429 69.0205 29.538 67.7508 29.6073 66.4859 29.6767 64.0132 29.8122 61.5406 29.9477 59.0679 30.0833 58.5702 30.1105 57.9955 30.0689 57.5389 30.2387 57.1525 30.3824 56.8777 30.6464 56.4356 30.7391 55.6196 30.9102 54.7216 30.7944 53.9832 31.2525Z" fill="#3F3D56" fill-rule="nonzero" fill-opacity="1" transform="matrix(1.00032 0 0 1 -1.59465 -1.8013)"/><path d="M67.6182 37.2685C67.5406 37.2563 67.4613 37.2742 67.3966 37.3188 67.3539 37.3659 67.3284 37.4261 67.3245 37.4896 67.2754 37.7698 67.3339 38.0582 67.4884 38.2971 67.6486 38.5357 67.9258 38.6686 68.2122 38.6441 68.5549 38.6004 68.8074 38.308 69.1225 38.1653 69.6081 37.9457 71.6703 37.6032 70.2438 36.8325 69.7522 36.5669 69.4345 36.8013 69.047 36.9763 68.6062 37.2018 68.1122 37.3028 67.6182 37.2685Z" fill="#3F3D56" fill-rule="nonzero" fill-opacity="1" transform="matrix(1.00032 0 0 1 -1.59465 -1.8013)"/><path d="M80.113 30.8175C79.9464 30.8855 79.8071 31.0068 79.7167 31.1624 79.6302 31.3265 79.6876 31.5296 79.8472 31.6241 79.9095 31.6467 79.9754 31.6572 80.0415 31.655L80.7189 31.6752C81.0066 31.6838 81.366 31.7451 81.4433 32.0224 81.5007 32.2282 81.3722 32.4928 81.5273 32.6399 81.5938 32.6915 81.6738 32.7227 81.7577 32.7298 81.9808 32.7871 82.2138 32.7946 82.4401 32.7518 82.9329 32.6197 82.674 32.3189 82.8292 32.0511 83.0667 31.6413 83.0256 31.8893 83.444 31.6545 83.7531 31.481 84.1524 31.1664 83.8945 30.7243 83.4459 29.9556 80.7749 30.4872 80.113 30.8175Z" fill="#3F3D56" fill-rule="nonzero" fill-opacity="1" transform="matrix(1.00032 0 0 1 -1.59465 -1.8013)"/><path d="M93.4813 30.431 93.088 30.4835C92.2011 30.6018 91.3092 30.7212 90.455 30.9876 90.8248 31.1338 91.2127 31.229 91.6082 31.2705 91.8258 31.2812 92.0421 31.3119 92.2541 31.3623 92.6314 31.4747 93.0115 31.7647 93.376 31.6161 93.602 31.524 93.6758 31.2887 93.863 31.164 93.9922 31.0779 94.4826 30.9385 94.5374 30.8516 94.9805 30.1489 93.8219 30.3855 93.4813 30.431Z" fill="#3F3D56" fill-rule="nonzero" fill-opacity="1" transform="matrix(1.00032 0 0 1 -1.59465 -1.8013)"/><path d="M95.2083 32.2185C94.683 32.5122 94.1956 32.8692 93.7569 33.2814 93.5722 33.4551 93.3834 33.6711 93.4002 33.9242 93.4224 34.2605 93.7807 34.4556 94.0911 34.587L95.3484 35.1193C95.5009 34.9044 95.3613 34.6076 95.2037 34.3963 95.0461 34.1851 94.8587 33.9407 94.9284 33.6864 95.0079 33.3963 95.3616 33.2975 95.6582 33.2475 96.1415 33.1661 97.4452 33.1726 97.2885 32.3937 97.104 31.476 95.6934 31.9473 95.2083 32.2185Z" fill="#3F3D56" fill-rule="nonzero" fill-opacity="1" transform="matrix(1.00032 0 0 1 -1.59465 -1.8013)"/><path d="M94.9555 84.1538C94.8358 84.5004 94.8244 84.9085 95.0315 85.2111 95.2638 85.5506 95.7288 85.6771 96.131 85.591 96.5316 85.4845 96.8886 85.2549 97.1519 84.9347 97.3926 84.6664 97.5906 84.3627 97.739 84.0342 97.9462 83.5223 98.0922 82.9878 98.1743 82.4418L98.5646 80.3922C98.6519 79.9341 98.6485 78.5298 97.8066 78.9873 97.5766 79.1123 97.0441 80.0992 96.803 80.3791 96.3686 80.8835 96.3111 81.3729 96.0824 81.9839 95.796 82.7493 95.2203 83.3872 94.9555 84.1538Z" fill="#3F3D56" fill-rule="nonzero" fill-opacity="1" transform="matrix(1.00032 0 0 1 -1.59465 -1.8013)"/><path d="M139.422 94.6422C139.147 94.5347 138.879 94.4074 138.622 94.2614 138.364 94.9703 138.227 95.7174 138.217 96.4717L140.102 95.405C140.385 95.2445 140.707 95.0215 140.701 94.6958 140.706 94.6138 140.666 94.5356 140.596 94.4918 140.555 94.475 140.509 94.4696 140.464 94.4763 140.185 94.4996 139.93 94.6371 139.666 94.7327 139.403 94.8284 139.094 94.879 138.852 94.737" fill="#3F3D56" fill-rule="nonzero" fill-opacity="1" transform="matrix(1.00032 0 0 1 -1.59465 -1.8013)"/><path d="M149.366 95.2755C149.16 95.3318 148.957 95.4044 148.762 95.4925 148.329 95.7126 148.035 96.1306 147.646 96.4205 147.273 96.698 146.825 96.8503 146.385 96.9984 146.255 97.1128 146.315 97.3434 146.455 97.4439 146.606 97.5299 146.78 97.5689 146.953 97.5558 147.41 97.5659 147.892 97.5703 148.293 97.3494 148.519 97.203 148.73 97.0354 148.924 96.8488 149.392 96.458 149.954 96.2001 150.511 95.951 150.714 95.8745 150.901 95.7624 151.065 95.6201 151.415 95.2754 151.439 94.7437 150.935 94.6263 150.527 94.5315 149.755 95.15 149.366 95.2755Z" fill="#3F3D56" fill-rule="nonzero" fill-opacity="1" transform="matrix(1.00032 0 0 1 -1.59465 -1.8013)"/><path d="M153.76 92.4054C153.806 91.9249 153.629 91.4498 153.279 91.117 153.274 91.5915 153.26 92.0971 152.993 92.4895 152.803 92.7691 152.504 92.958 152.296 93.2243 152.088 93.4906 151.995 93.9128 152.24 94.1465 152.396 94.2653 152.586 94.3309 152.782 94.3334 153.269 94.3907 153.832 94.4226 154.173 94.0711 154.359 93.8793 154.45 93.5952 154.677 93.4542 154.762 93.4186 154.837 93.3646 154.898 93.2959 154.992 93.1469 154.843 92.9504 154.675 92.8966 154.507 92.8429 154.323 92.8682 154.154 92.8172 153.985 92.7662 153.831 92.5766 153.917 92.4232" fill="#3F3D56" fill-rule="nonzero" fill-opacity="1" transform="matrix(1.00032 0 0 1 -1.59465 -1.8013)"/><path d="M145.951 75.0066C145.696 75.0687 145.432 75.0843 145.171 75.0526 144.738 74.973 144.401 74.6466 144.051 74.3789 143.22 73.7461 142.209 73.3931 141.165 73.3706 140.215 73.3526 139.256 73.6101 138.323 73.4305 138.384 73.7696 138.674 74.0239 138.984 74.1751 139.293 74.3262 139.635 74.4023 139.946 74.5504 140.444 74.7899 140.839 75.201 141.059 75.7083 141.159 75.9422 141.222 76.1967 141.374 76.4009 141.684 76.8183 142.272 76.9099 142.791 76.8758 143.468 76.8313 144.174 76.6367 144.804 76.8888 145.285 77.0816 145.63 77.503 146.032 77.8307 146.434 78.1584 147 78.4016 147.462 78.1652 146.478 77.8465 145.815 76.925 145.826 75.8905 146.279 75.9322 147.583 75.916 147.513 75.1467 147.453 74.4947 146.34 74.9362 145.951 75.0066Z" fill="#3F3D56" fill-rule="nonzero" fill-opacity="1" transform="matrix(1.00032 0 0 1 -1.59465 -1.8013)"/><path d="M140.028 80.3115C140.108 79.8706 140.548 79.4812 140.411 79.0545 140.316 78.7593 139.974 78.6136 139.664 78.6063 139.354 78.5991 139.05 78.6914 138.74 78.7001 138.538 78.6893 138.336 78.6922 138.135 78.7086 137.52 78.8097 137.141 79.4544 136.561 79.6836 136.209 79.823 135.813 79.7964 135.446 79.8927 134.614 80.1114 134.088 80.8977 133.506 81.5316 132.566 82.5513 131.342 83.2653 129.992 83.5811 129.519 83.6906 129.01 83.7607 128.634 84.068 128.136 84.4749 128.014 85.1724 127.903 85.8058 127.597 87.5553 127.129 89.2725 126.505 90.9354L128.481 91.1877C128.857 91.2356 129.246 91.2826 129.608 91.1713 129.871 91.0721 130.12 90.9394 130.349 90.7765 131.229 90.2302 132.214 89.8748 133.24 89.7331 133.757 89.6621 134.3 89.649 134.785 89.8414 135.271 90.0337 135.687 90.4698 135.728 90.9904 136.156 90.8573 136.622 90.9707 136.941 91.2854 137.25 91.6007 137.453 92.0051 137.52 92.4416 137.572 92.7119 137.624 93.0358 137.875 93.1492 138.08 93.2417 138.314 93.1421 138.538 93.1242 139.298 93.0634 139.928 93.9491 140.675 93.7966 141.476 93.633 141.672 92.4338 142.453 92.1936 142.902 92.0556 143.531 92.2234 143.746 91.8061 143.935 91.4382 143.558 91.0138 143.597 90.6019 143.645 90.0947 144.243 89.8795 144.704 89.6631 146.294 88.917 147.048 86.7771 146.278 85.1989 145.821 84.2638 144.923 83.5277 144.757 82.5004 144.63 81.7101 144.941 80.7884 144.437 80.1663 144.181 79.8498 143.747 79.6751 143.594 79.2975 143.498 79.0598 143.537 78.7901 143.485 78.539 143.434 78.2879 143.215 78.0253 142.967 78.0904 142.247 78.2793 142.017 80.5028 141.632 81.043 141.046 81.8642 139.843 81.3233 140.028 80.3115Z" fill="#3F3D56" fill-rule="nonzero" fill-opacity="1" transform="matrix(1.00032 0 0 1 -1.59465 -1.8013)"/><path d="M126.724 75.8467C126.478 75.7778 126.209 75.7098 125.974 75.8084 125.738 75.9069 125.6 76.253 125.79 76.4247 127.269 76.367 128.758 76.3098 130.225 76.5107 131.916 76.7423 133.589 77.3158 135.287 77.1471 134.317 76.8609 133.331 76.6322 132.334 76.4619L130.672 76.1444C130.226 76.051 129.776 75.9814 129.322 75.9359 128.374 75.8575 127.656 76.1082 126.724 75.8467Z" fill="#3F3D56" fill-rule="nonzero" fill-opacity="1" transform="matrix(1.00032 0 0 1 -1.59465 -1.8013)"/><path d="M128.205 70.6929C128.083 70.6826 127.93 70.6738 127.867 70.7794 127.806 70.8803 127.876 71.0137 127.843 71.1268 127.798 71.2814 127.596 71.3209 127.436 71.2999 127.277 71.2789 127.104 71.2284 126.963 71.3054 126.816 71.4059 126.753 71.5916 126.808 71.7611 126.866 71.925 126.959 72.0739 127.081 72.1973 127.29 72.4607 127.529 72.6995 127.791 72.9093 128.3 73.2848 128.989 73.4657 129.309 74.0107 129.355 74.1163 129.424 74.2098 129.512 74.2835 129.666 74.3809 129.866 74.3068 130.032 74.2312L130.612 73.966C130.717 73.9283 130.81 73.8649 130.884 73.7815 131.016 73.6016 130.935 73.3457 130.824 73.1519 130.712 72.9581 130.57 72.7576 130.594 72.5353 130.636 72.1391 131.146 71.9876 131.355 71.6486 131.566 71.3069 131.429 70.8667 131.453 70.4657 131.482 69.9968 131.776 69.3869 131.302 69.0366 130.899 68.7389 130.514 69.014 130.225 69.3427 129.615 70.0358 129.327 70.7865 128.205 70.6929Z" fill="#3F3D56" fill-rule="nonzero" fill-opacity="1" transform="matrix(1.00032 0 0 1 -1.59465 -1.8013)"/><path d="M131.728 63.6871C131.926 64.0664 132.339 64.2928 132.556 64.6623 132.79 65.0628 132.763 65.5802 133.017 65.9684 133.278 66.3666 133.802 66.578 133.949 67.031 134.108 67.5255 133.746 68.1266 134.035 68.5587 134.249 68.8404 134.652 68.8947 134.933 68.68 134.948 68.6689 134.962 68.6573 134.975 68.6451 135.228 68.3696 135.216 67.9425 134.947 67.6824 134.776 67.5266 134.531 67.4592 134.388 67.2772 134.314 67.1722 134.264 67.0517 134.243 66.9247 134.165 66.5585 134.178 66.1789 134.279 65.8186 134.318 65.7272 134.327 65.6264 134.307 65.5293 134.243 65.3426 133.99 65.3293 133.813 65.2427 133.41 65.046 133.419 64.4772 133.49 64.0342 133.443 64.3291 132.393 63.8275 132.283 63.6605 132.064 63.3287 132.183 62.6886 132.14 62.3219 131.668 62.5492 131.486 63.2232 131.728 63.6871Z" fill="#3F3D56" fill-rule="nonzero" fill-opacity="1" transform="matrix(1.00032 0 0 1 -1.59465 -1.8013)"/><path d="M121.146 69.5242C120.952 69.3072 120.66 69.0801 120.4 69.211 120.202 69.3109 120.147 69.5853 120.225 69.7933 120.319 69.9953 120.465 70.1691 120.648 70.2975 121.189 70.7442 121.773 71.1475 122.245 71.6668 123.091 72.5961 123.539 73.8501 124.459 74.7063 124.644 74.9048 124.888 75.0373 125.156 75.0835 125.424 75.1084 125.724 74.9369 125.755 74.6695 125.781 74.4493 125.627 74.2522 125.477 74.089 125.12 73.7004 124.729 73.3427 124.391 72.9367 124.236 72.7807 124.138 72.5762 124.114 72.3571 124.112 72.1384 124.312 71.9096 124.523 71.9637 124.266 71.8979 124.075 71.4687 123.697 71.388 123.381 71.3206 123.304 71.5162 122.928 71.3549 122.211 71.0473 121.648 70.0866 121.146 69.5242Z" fill="#3F3D56" fill-rule="nonzero" fill-opacity="1" transform="matrix(1.00032 0 0 1 -1.59465 -1.8013)"/><path d="M137.999 48.3907C137.794 48.3296 137.591 48.2573 137.393 48.1743 136.861 48.0144 136.156 48.4059 136.227 48.9573 136.274 49.3238 136.615 49.5708 136.804 49.8886 137.083 50.3599 137.008 50.9578 136.862 51.4856 136.826 51.649 136.757 51.8035 136.66 51.94 136.525 52.084 136.363 52.2006 136.183 52.2833 135.464 52.6865 134.83 53.2254 134.315 53.8699 134.259 53.9294 134.22 54.0029 134.203 54.0825 134.177 54.2687 134.364 54.4044 134.47 54.5597 134.705 54.9046 134.535 55.3688 134.559 55.7856 134.551 55.9054 134.607 56.0205 134.705 56.0897 134.846 56.1617 135.014 56.0395 135.091 55.9003 135.346 55.4387 135.154 54.6976 135.632 54.475 135.722 54.4329 135.832 54.4151 135.892 54.3357 135.988 54.2097 135.896 54.0231 135.944 53.8725 136.017 53.6463 136.326 53.6362 136.564 53.6462 136.972 53.6633 137.381 53.6089 137.771 53.4854 137.924 53.449 138.064 53.3685 138.171 53.2538 138.314 53.0755 138.301 52.8219 138.273 52.5952 138.13 51.4647 137.772 50.3721 137.218 49.3763 137.638 49.43 138.095 49.4764 138.457 49.2576 138.66 49.135 138.903 48.7686 138.803 48.5191 138.644 48.1247 138.356 48.4567 137.999 48.3907Z" fill="#3F3D56" fill-rule="nonzero" fill-opacity="1" transform="matrix(1.00032 0 0 1 -1.59465 -1.8013)"/><path d="M84.1642 54.6079C84.2144 54.8775 84.2638 55.1613 84.1755 55.4208 84.0872 55.6804 83.8093 55.8973 83.5469 55.8177 83.3433 55.756 83.2256 55.5513 83.081 55.3951 82.2769 54.527 80.4627 55.0297 79.9659 53.9557 79.7632 53.5173 79.901 52.9922 79.7627 52.5295 79.5833 51.9795 79.0546 51.6203 78.4772 51.6562 78.2211 51.6932 77.9719 51.7676 77.7374 51.877 76.1668 52.506 74.518 52.9184 72.8362 53.1029 72.5166 53.1223 72.2005 53.1799 71.8945 53.2742 71.2039 53.5246 70.7321 54.1648 70.3963 54.8181 70.0605 55.4713 69.8126 56.1786 69.3625 56.759 68.8893 57.369 68.2263 57.7961 67.6079 58.2582 67.3697 58.4117 67.1713 58.6196 67.0291 58.8648 66.895 59.14 66.9026 59.4602 66.913 59.7662L67.0394 63.4826C67.0557 63.9607 67.0761 64.4558 67.29 64.8836 67.5572 65.4177 68.085 65.7676 68.4511 66.2395 68.8247 66.7245 69.0194 67.3236 69.0021 67.9356 68.9943 68.1816 68.9698 68.4726 69.1614 68.6271 69.278 68.7027 69.4144 68.7419 69.5533 68.7398L74.5806 69.1513C75.4649 69.2236 76.4449 69.3426 77.0223 70.0164 77.2948 70.3344 77.5137 70.7916 77.931 70.8258 78.1101 70.8404 78.2843 70.7669 78.4633 70.7527 78.9151 70.7169 79.312 71.0598 79.5624 71.4375 79.9415 72.0131 80.1136 72.7005 80.0504 73.3869 80.0093 73.8177 79.8757 74.2365 79.8469 74.6684 79.7374 76.3114 81.1302 77.7389 81.1572 79.3854 81.1731 80.3539 80.7133 81.2588 80.2651 82.1174 80.9885 83.2134 80.3962 84.6728 80.6842 85.954 80.9574 87.1695 81.9709 88.121 82.2234 89.341 82.3391 89.8995 82.3457 90.5868 82.8382 90.8745 83.0543 90.9798 83.2939 91.0278 83.5339 91.0138 84.9815 91.0309 86.4126 90.7051 87.7102 90.063 88.3191 89.7608 88.9503 89.3097 89.0566 88.6382 89.1424 88.0967 88.8678 87.491 89.1473 87.0194 89.4766 86.4634 90.3204 86.5075 90.805 86.0801 91.5912 85.3867 90.9781 84.0644 91.2967 83.0657 91.583 82.168 92.5686 81.691 93.0572 80.8853 93.2495 80.5388 93.3875 80.1649 93.4663 79.7765 93.6901 78.8484 93.8295 77.9019 93.8826 76.9486 93.8956 76.3694 93.9383 75.7912 94.0105 75.2164 94.5373 71.9438 97.7726 69.7524 98.823 66.6086 98.9233 66.3083 98.9704 65.9084 98.7033 65.7385 98.5449 65.6629 98.3653 65.6441 98.1946 65.6853L95.8772 65.9774C95.5893 66.0137 95.2842 66.0477 95.0199 65.9281 94.7555 65.8085 94.5661 65.4741 94.7063 65.2201 95.0999 64.5072 94.2902 63.6062 93.9305 62.8756 92.9618 60.9082 91.8082 59.0373 90.4853 57.2883 90.4007 57.1983 90.3476 57.0832 90.3343 56.9603L90.992 56.9823C90.77 56.1856 90.4036 55.3138 89.6296 55.0223 89.1934 54.8581 88.7105 54.9149 88.2451 54.9403 86.9123 55.0131 85.4833 54.8119 84.1642 54.6079Z" fill="#3F3D56" fill-rule="nonzero" fill-opacity="1" transform="matrix(1.00032 0 0 1 -1.59465 -1.8013)"/><path d="M88.2462 36.6547C88.595 37.0251 88.9858 37.4178 89.4904 37.4823 90.3818 37.5963 91.0226 36.6746 91.4306 35.874 91.4621 36.2984 91.8256 36.6207 92.2507 36.601 92.4707 36.564 92.6807 36.4819 92.8675 36.3599 94.6335 35.3948 96.6115 34.8835 98.624 34.8718 98.5839 34.5561 98.7888 34.2611 99.0987 34.1884 99.5079 34.1073 99.8764 34.461 100.074 34.8285 100.271 35.196 100.394 35.6219 100.708 35.897 101.021 36.172 101.629 36.16 101.752 35.7617 101.871 35.3793 101.473 35.0532 101.142 34.8278 100.811 34.6023 100.462 34.185 100.685 33.8523 102.376 33.478 104.077 33.1023 105.808 33.0279 106.102 33.0382 106.396 32.9876 106.67 32.8794 106.934 32.7499 107.143 32.456 107.073 32.1707 106.3 32.3523 105.495 32.0485 105.035 31.4021 107.436 31.204 109.989 31.0352 112.117 32.1648 112.372 32.7129 111.071 33.169 111.419 33.6633 111.53 33.821 111.753 33.8395 111.945 33.8431 113.424 33.8705 114.911 33.8975 116.373 33.6742 116.907 33.5927 117.447 33.4775 117.983 33.5436 118.876 33.6538 119.641 34.2499 120.519 34.4442 120.877 34.5233 121.278 34.526 121.58 34.318 121.881 34.1099 122.011 33.6361 121.764 33.3657 122.591 32.5546 123.965 32.7556 125.056 33.1439 126.148 33.5322 127.182 34.1584 128.338 34.2449 129.166 34.307 130.007 34.0841 130.825 34.2258 131.34 34.3148 131.819 34.5437 132.321 34.6843 133.272 34.9503 134.278 34.8941 135.266 34.9069 137.785 34.9409 140.277 35.436 142.618 36.3679 142.923 36.467 143.202 36.6319 143.436 36.8508 143.653 37.0841 143.765 37.4465 143.618 37.7301L141.199 37.3767C141.427 37.8254 142.017 37.9018 142.496 38.0566 142.974 38.2114 143.471 38.7402 143.183 39.1531 142.664 38.9879 142.194 39.5066 141.932 39.9839 141.67 40.4611 141.351 41.0327 140.807 41.0618 140.32 41.0879 139.731 40.6733 139.414 41.0434 139.852 41.5966 140.228 42.1968 140.533 42.8331 140.847 43.4863 141.07 44.3094 140.646 44.8971 140.58 45.002 140.478 45.0804 140.36 45.1189 140.014 45.2065 139.789 44.7831 139.541 44.5265 139.228 44.2031 138.755 44.1115 138.332 43.9598 137.908 43.8081 137.462 43.5098 137.429 43.0611 137.408 42.782 137.556 42.5225 137.664 42.2645 137.847 41.8296 137.926 41.3585 137.897 40.8878 137.874 40.5091 137.767 40.1152 137.495 39.8506 137.223 39.586 136.754 39.5021 136.462 39.7444 136.326 39.8575 136.217 40.0384 136.04 40.0451 135.727 40.0571 135.487 39.5121 135.236 39.6981 135.265 39.8964 135.224 40.0986 135.119 40.2696 134.369 40.9223 133.216 40.6462 132.249 40.8768 131.788 41.0084 131.348 41.2008 130.939 41.4488 130.786 41.5142 130.655 41.6236 130.564 41.763 130.444 41.9977 130.577 42.2983 130.79 42.4543 131.015 42.5928 131.269 42.6794 131.532 42.7078 132.712 42.9312 133.909 43.277 134.84 44.0346 135.771 44.7922 136.382 46.0446 136.087 47.2084L133.761 44.9858C133.849 45.919 133.899 46.8548 133.911 47.7931 133.926 47.9763 133.901 48.1606 133.838 48.3331 133.672 48.6994 133.222 48.8226 132.828 48.9035 132.4 48.9849 132.118 49.3987 132.199 49.8275 132.205 49.8575 132.213 49.8871 132.222 49.9162 132.362 50.3723 132.711 50.7278 133.03 51.0822 133.349 51.4365 133.664 51.8392 133.706 52.3144 133.747 52.7896 133.389 53.3253 132.913 53.2923 132.552 53.2672 132.285 52.9442 132.131 52.617 131.977 52.2897 131.885 51.9251 131.654 51.647 130.954 50.8053 129.382 51.1659 128.755 50.2686 128.43 50.6372 128.319 51.1477 128.462 51.6179 128.754 51.4353 129.153 51.605 129.372 51.8703 129.591 52.1356 129.695 52.4757 129.867 52.7737 130.099 53.1758 130.469 53.5323 130.501 53.9955 130.492 54.1706 130.495 54.3462 130.51 54.5209 130.567 54.8016 130.805 55.0031 130.969 55.2377 131.352 55.7836 131.333 56.5334 131.086 57.1528 130.84 57.7721 130.396 58.2897 129.957 58.7914 129.191 59.6678 128.408 60.539 127.499 61.2668 127.24 61.4745 126.963 61.6787 126.802 61.969 126.64 62.2593 126.632 62.6669 126.88 62.8877 126.703 62.8966 126.384 62.984 126.206 62.9929 126.144 62.2804 126.13 61.5644 126.166 60.8501 125.465 60.5135 124.71 61.4148 124.801 62.1871 124.891 62.9593 125.45 63.579 125.847 64.2471 126.138 64.7357 126.354 65.3054 126.257 65.8656 126.16 66.4259 125.66 66.9427 125.094 66.8933 124.193 66.8147 123.816 65.5213 122.924 65.3732 122.845 65.3548 122.762 65.363 122.689 65.3965 122.556 65.4692 122.533 65.6464 122.526 65.7973 122.489 66.5379 122.458 67.3079 122.747 67.9907 123.17 68.9896 124.262 69.8286 124.033 70.8888 122.799 70.3149 122.157 68.9303 121.865 67.6003 121.574 66.2704 121.525 64.8742 121.003 63.6169 120.606 64.1254 119.772 63.705 119.41 63.1716 119.066 62.6658 118.854 62.0808 118.521 61.5683 118.188 61.0557 117.677 60.5968 117.066 60.5686 116.426 60.5391 115.87 60.9785 115.382 61.3937 114.98 61.7352 114.568 62.0901 114.333 62.562 113.991 63.2489 114.081 64.0586 114.064 64.8255 114.047 65.6546 113.871 66.5294 113.306 67.1363 112.741 67.7433 111.698 67.9547 111.074 67.4077 110.749 67.1221 110.591 66.6954 110.451 66.2858 109.775 64.3115 109.211 62.3003 108.764 60.2618 108.659 60.7271 108.25 61.3267 107.86 61.0527 107.773 60.979 107.702 60.8876 107.652 60.7845 106.924 59.5506 105.576 58.8105 104.214 58.3668 102.851 57.923 101.418 57.716 100.071 57.2283 99.3163 56.9549 98.5953 56.5958 97.9224 56.158 97.5729 56.6714 97.5332 57.3353 97.8191 57.8867 98.1179 58.4158 98.7941 58.7219 99.3729 58.537 99.672 58.4414 99.9246 58.2338 100.221 58.1312 100.518 58.0287 100.917 58.079 101.046 58.365 101.171 58.6387 100.983 58.9697 101.076 59.2555 101.218 59.6907 101.874 59.7243 102.104 60.1203 102.274 60.415 102.134 60.8063 101.89 61.0441 101.646 61.2819 101.321 61.4123 101.023 61.5778 100.057 62.1149 99.3706 63.0317 98.5265 63.7451 97.6824 64.4584 96.4915 64.9792 95.4856 64.5216 95.7254 63.3074 94.279 62.416 94.0129 61.2073 93.9253 60.8094 93.9707 60.3868 93.8457 59.9991 93.6647 59.4378 93.1667 59.0518 92.7581 58.6264 91.757 57.5728 91.2241 56.1593 91.2805 54.707 91.3026 54.2074 91.3943 53.6998 91.2805 53.2128 91.1667 52.7259 90.7636 52.2547 90.2641 52.2767 89.1231 52.3271 87.6857 52.412 87.0871 51.4394 86.8735 51.0922 86.7805 50.5838 87.0894 50.3179 87.3073 50.1303 87.629 50.1479 87.9151 50.1761L90.4859 50.429C91.0871 50.4881 91.7371 50.5369 92.253 50.2226 92.769 49.9083 92.9925 49.0739 92.5148 48.7041 92.1657 48.4339 91.5403 48.4485 91.4388 48.0189 91.3543 47.6611 91.7503 47.2552 91.5364 46.9561 91.3831 46.7417 91.0383 46.8012 90.8293 46.9619 90.6204 47.1227 90.4688 47.3577 90.2349 47.4794 89.8247 47.6929 89.3346 47.4897 88.8932 47.3516 88.4519 47.2136 87.8603 47.2018 87.6462 47.6117 87.4068 48.0702 87.8585 48.6709 87.621 49.1302 87.3068 49.7375 86.243 49.3918 85.8019 49.9142 85.2957 50.5137 86.1464 51.4075 85.9756 52.1733 85.5323 52.3929 85.0061 52.3634 84.5901 52.0955 84.1804 51.8168 83.9569 51.3354 84.0086 50.8425 84.0508 50.498 84.2304 50.1463 84.1101 49.8208 84.0128 49.5576 83.7485 49.4009 83.5029 49.2651L81.0047 47.8847C80.7728 48.3149 81.066 48.8483 81.4327 49.1715 81.7995 49.4947 82.2588 49.738 82.4997 50.1634 82.816 50.775 82.6013 51.5272 82.0098 51.8798 81.9375 51.9297 81.847 51.9455 81.7622 51.923 81.6816 51.8757 81.6237 51.7978 81.6016 51.707 81.1608 50.579 80.499 49.4669 79.441 48.8777 78.3829 48.2884 76.8626 48.4096 76.1688 49.4022 76.004 49.6379 75.8934 49.9067 75.7499 50.1559 74.9872 51.4802 73.3521 52.1073 71.8244 52.0664 71.6749 52.0746 71.5263 52.0397 71.3961 51.9657 71.1493 51.7952 71.1604 51.4334 71.1982 51.1357L71.3585 49.8725C71.3907 49.6188 71.4374 49.3384 71.6382 49.1801 71.9212 48.9569 72.3294 49.0977 72.6898 49.0926 73.2492 49.0664 73.7325 48.6934 73.8996 48.1589 74.048 47.622 73.887 47.047 73.4814 46.6652 73.3162 46.51 73.0945 46.3151 73.1818 46.106 73.2522 45.9888 73.3709 45.9089 73.506 45.8877 74.1533 45.6997 74.8374 45.6504 75.474 45.4286 76.1106 45.2067 76.728 44.7529 76.8787 44.0958 76.9249 43.8945 76.9459 43.6505 77.1268 43.5507 77.2176 43.5124 77.315 43.4925 77.4135 43.4921 78.1289 43.3904 78.6482 42.7592 78.6103 42.0376 78.9154 41.8245 79.3428 41.9813 79.638 42.208 79.9331 42.4348 80.1937 42.7343 80.5528 42.8321 81.2221 43.0142 81.8689 42.4216 82.5625 42.4189 82.8542 42.4177 83.1562 42.5209 83.4306 42.422 83.7087 42.3217 83.8749 42.0448 84.0884 41.8402 84.3019 41.6356 84.6765 41.5109 84.8737 41.7312L84.7058 40.4877C85.3898 40.6605 86.1151 40.5294 86.6954 40.128L84.5256 39.3949C84.4501 39.376 84.3803 39.3388 84.3227 39.2864 84.165 39.1165 84.3216 38.8518 84.4499 38.6588 84.7568 38.1968 84.8083 37.436 84.3037 37.206 83.9592 37.049 83.5639 37.2374 83.2333 37.4218L81.6496 38.3048C81.5993 38.6058 81.9674 38.7764 82.1955 38.9792 82.5733 39.315 82.6074 39.8935 82.2715 40.2713 82.1004 40.4638 81.8562 40.5753 81.5986 40.5785 81.8099 40.8531 81.8848 41.2089 81.8023 41.5454L80.7368 41.622C80.6172 41.6461 80.493 41.6218 80.3912 41.5546 80.2773 41.4534 80.2927 41.276 80.2663 41.1259 80.2025 40.7636 79.8478 40.5097 79.4857 40.4445 79.1237 40.3794 78.7533 40.4629 78.3947 40.5453 78.2425 40.6001 78.0753 40.5962 77.9258 40.5345 77.84 40.4788 77.7749 40.3965 77.7402 40.3003 77.5831 39.9192 77.73 39.4712 77.9824 39.1453 78.2349 38.8194 78.5805 38.5811 78.8908 38.3098 79.633 37.6586 80.1784 36.8128 80.4652 35.8679 81.0517 35.6222 81.659 35.2882 82.2456 35.0425 83.1499 34.5846 84.164 34.3881 85.1739 34.4751L87.1604 34.5131C87.7485 34.5243 88.3525 34.5387 88.8963 34.7629 89.4402 34.9871 89.918 35.4721 89.9556 36.0591 89.9786 36.1942 89.9305 36.3316 89.8282 36.4229 89.7514 36.4648 89.6644 36.4844 89.577 36.4795 89.0285 36.4987 88.7947 36.6354 88.2462 36.6547Z" fill="#3F3D56" fill-rule="nonzero" fill-opacity="1" transform="matrix(1.00032 0 0 1 -1.59465 -1.8013)"/><path d="M72.4129 42.8803C72.5711 42.7305 72.6323 42.5049 72.5714 42.2957 72.1862 42.147 71.75 42.2294 71.4455 42.5083 71.3279 42.6273 71.2264 42.7614 71.1439 42.907 70.8829 43.3329 70.652 43.8416 70.8033 44.3176 70.8282 44.4225 70.8943 44.5129 70.9867 44.5684 71.0545 44.5957 71.1276 44.6071 71.2004 44.6019 71.488 44.6016 71.7753 44.5839 72.0607 44.549 72.236 44.5275 72.4396 44.478 72.5073 44.315 72.5964 44.1006 72.3808 43.858 72.4437 43.6345 72.485 43.5346 72.5477 43.4449 72.6272 43.3716 72.7073 43.2969 72.7474 43.1888 72.7355 43.0799 72.7101 42.975 72.5496 42.9156 72.4918 43.0067" fill="#3F3D56" fill-rule="nonzero" fill-opacity="1" transform="matrix(1.00032 0 0 1 -1.59465 -1.8013)"/><path d="M73.904 40.9471C73.6485 40.8885 73.3852 40.8719 73.1244 40.8982 73.0668 40.8964 73.0096 40.9094 72.9583 40.9359 72.9087 40.9725 72.8726 41.0247 72.856 41.0841 72.7418 41.4507 72.9284 41.8436 73.2847 41.9866 73.3784 42.0082 73.4681 42.0442 73.5506 42.0935 73.7711 42.2645 73.6305 42.6142 73.6723 42.8901 73.7191 43.1999 74.019 43.46 73.9641 43.7685 73.9207 44.0116 73.6612 44.204 73.7029 44.4473 73.7467 44.7021 74.0701 44.7787 74.3279 44.7991 74.4772 44.8253 74.631 44.8077 74.7706 44.7484 74.9105 44.6527 75.01 44.5086 75.0499 44.3439 75.1555 44.0298 75.1998 43.6983 75.1806 43.3675 75.1794 43.2171 75.1416 43.0692 75.0705 42.9366 74.9928 42.8316 74.9068 42.7331 74.8132 42.642 74.3193 42.0676 74.8393 41.2107 73.904 40.9471Z" fill="#3F3D56" fill-rule="nonzero" fill-opacity="1" transform="matrix(1.00032 0 0 1 -1.59465 -1.8013)"/><path d="M138.844 85.9474C138.844 85.9474 101.02 64.2357 84.7366 68.3495 84.7366 68.3495 50.2265 72.0634 46.2269 80.2338 46.2269 80.2338 35.2568 45.9522 31.2573 44.8095" stroke="#6C63FF" stroke-width="0.276895" stroke-linecap="butt" stroke-linejoin="miter" stroke-miterlimit="10" stroke-opacity="0.8" fill="none" fill-rule="nonzero" transform="matrix(1.00032 0 0 1 -1.59465 -1.8013)"/><path d="M46.2269 80.2338C52.569 63.3216 109.705 44.581 109.705 44.581 101.592 46.6379 84.7366 68.3495 84.7366 68.3495 84.7366 68.3495 49.0837 42.4098 31.2573 44.8095 31.2573 44.8095 109.762 47.3806 138.844 85.9474" stroke="#6C63FF" stroke-width="0.276895" stroke-linecap="butt" stroke-linejoin="miter" stroke-miterlimit="10" stroke-opacity="0.8" fill="none" fill-rule="nonzero" transform="matrix(1.00032 0 0 1 -1.59465 -1.8013)"/><path d="M31.2949 43.0082C31.2949 43.9233 30.553 44.6651 29.6379 44.6651 28.7228 44.6651 27.981 43.9233 27.981 43.0082 27.981 42.0931 28.7228 41.3513 29.6379 41.3513 30.553 41.3513 31.2949 42.0931 31.2949 43.0082Z" fill="#6C63FF" fill-rule="nonzero" fill-opacity="1" transform="matrix(1.00032 0 0 1 0.0252679 5.77651e-15)"/><path d="M46.2645 78.4325C46.2645 79.3476 45.5226 80.0894 44.6075 80.0894 43.6924 80.0894 42.9506 79.3476 42.9506 78.4325 42.9506 77.5174 43.6924 76.7756 44.6075 76.7756 45.5226 76.7756 46.2645 77.5174 46.2645 78.4325Z" fill="#6C63FF" fill-rule="nonzero" fill-opacity="1" transform="matrix(1.00032 0 0 1 0.0252679 5.77651e-15)"/><path d="M109.743 42.7797C109.743 43.6948 109.001 44.4366 108.086 44.4366 107.17 44.4366 106.429 43.6948 106.429 42.7797 106.429 41.8646 107.17 41.1227 108.086 41.1227 109.001 41.1227 109.743 41.8646 109.743 42.7797Z" fill="#6C63FF" fill-rule="nonzero" fill-opacity="1" transform="matrix(1.00032 0 0 1 0.0252679 5.77651e-15)"/><path d="M138.882 84.1461C138.882 85.0612 138.14 85.803 137.225 85.803 136.31 85.803 135.568 85.0612 135.568 84.1461 135.568 83.231 136.31 82.4892 137.225 82.4892 138.14 82.4892 138.882 83.231 138.882 84.1461Z" fill="#6C63FF" fill-rule="nonzero" fill-opacity="1" transform="matrix(1.00032 0 0 1 0.0252679 5.77651e-15)"/><path d="M84.7741 66.5482C84.7741 67.4633 84.0323 68.2052 83.1172 68.2052 82.2021 68.2052 81.4602 67.4633 81.4602 66.5482 81.4602 65.6331 82.2021 64.8913 83.1172 64.8913 84.0323 64.8913 84.7741 65.6331 84.7741 66.5482Z" fill="#6C63FF" fill-rule="nonzero" fill-opacity="1" transform="matrix(1.00032 0 0 1 0.0252679 5.77651e-15)"/></g></g></g></g></g></svg>