<svg width="128" height="128" xmlns="http://www.w3.org/2000/svg" xmlns:xlink="http://www.w3.org/1999/xlink" xml:space="preserve" overflow="hidden"><g><g><path d="M90.4 46.6667 85.8667 42.1333 82.1333 45.8667 86.6667 50.4 82.4 54.6667 77.8667 50.1333 74.1333 53.8667 78.6667 58.4 74.4 62.6667 69.8667 58.1333 66.1333 61.8667 70.6667 66.4 66.5333 70.5333 57.4667 61.4667 85.3333 33.6 94.4 42.6667 90.4 46.6667ZM116.133 27.8667 100.133 11.8667C98.5333 10.2667 96 10.2667 94.5333 11.8667 92.9333 13.4667 92.9333 16 94.5333 17.4667L97.8667 20.8 90.8 27.8667 85.3333 22.4 82.8 19.8667C81.2 18.2667 78.6667 18.2667 77.2 19.8667 75.6 21.4667 75.6 24 77.2 25.4667L79.7333 28 44.5333 63.2C41.8667 65.8667 40.2667 69.4667 40.2667 73.3333 40.2667 74.8 40.5333 76.2667 40.9333 77.7333L34 84.6667C32.1333 86.5333 31.6 89.3333 32.5333 91.7333L11.4667 112.8C10.4 113.867 10.4 115.467 11.4667 116.533 12 117.067 12.6667 117.333 13.3333 117.333 14 117.333 14.6667 117.067 15.2 116.533L36.2667 95.4667C38.6667 96.4 41.4667 95.8667 43.3333 94L50.2667 87.0667C51.7333 87.4667 53.2 87.7333 54.6667 87.7333 58.4 87.7333 62 86.4 64.8 83.4667L100 48.2667 102.533 50.8C103.333 51.6 104.4 52 105.333 52 106.267 52 107.333 51.6 108.133 50.8 109.733 49.2 109.733 46.6667 108.133 45.2L105.6 42.6667 100.133 37.2 107.2 30.1333 110.533 33.4667C111.333 34.2667 112.4 34.6667 113.333 34.6667 114.267 34.6667 115.333 34.2667 116.133 33.4667 117.733 31.8667 117.733 29.4667 116.133 27.8667Z" stroke="#4472C4" stroke-width="1.33333" stroke-linecap="butt" stroke-linejoin="miter" stroke-miterlimit="4" stroke-opacity="1" fill="#4472C4" fill-rule="nonzero" fill-opacity="1"/></g></g></svg>